<svg width="214" height="47" viewBox="0 0 214 47" fill="none" xmlns="http://www.w3.org/2000/svg">
<path d="M6.29848 0H10.7189C11.5845 0 12.2862 0.701705 12.2862 1.5673V1.5673C12.2862 2.4329 11.5845 3.1346 10.7189 3.1346H6.29848C4.57565 3.1346 3.17904 4.53122 3.17904 6.25404V11.3316C3.17904 12.1972 2.47733 12.8989 1.61174 12.8989V12.8989C0.746139 12.8989 0.0444336 12.1972 0.0444336 11.3316V6.25404C0.0444336 2.80002 2.84446 0 6.29848 0Z" fill="#FF7629"/>
<path d="M1.61174 35.2348C0.746139 35.2348 0.0444336 35.9365 0.0444336 36.8021V40.5649C0.0444336 44.0189 2.84446 46.819 6.29847 46.819H10.7189C11.5845 46.819 12.2862 46.1173 12.2862 45.2517V45.2517C12.2862 44.3861 11.5845 43.6844 10.7189 43.6844H6.29847C4.57566 43.6844 3.17904 42.2877 3.17904 40.5649V36.8021C3.17904 35.9365 2.47733 35.2348 1.61174 35.2348V35.2348Z" fill="#FF7629"/>
<path d="M45.2961 35.2348C44.4305 35.2348 43.7288 35.9365 43.7288 36.8021V40.5649C43.7288 42.2877 42.3322 43.6844 40.6094 43.6844H36.1894C35.3238 43.6844 34.6221 44.3861 34.6221 45.2517V45.2517C34.6221 46.1173 35.3238 46.819 36.1894 46.819H40.6094C44.0634 46.819 46.8634 44.0189 46.8634 40.5649V36.8021C46.8634 35.9365 46.1617 35.2348 45.2961 35.2348V35.2348Z" fill="#FF7629"/>
<path d="M45.2961 12.8989C46.1617 12.8989 46.8634 12.1972 46.8634 11.3316V6.25404C46.8634 2.80003 44.0634 0 40.6094 0H36.1894C35.3238 0 34.6221 0.701705 34.6221 1.5673V1.5673C34.6221 2.4329 35.3238 3.1346 36.1894 3.1346H40.6094C42.3322 3.1346 43.7288 4.53122 43.7288 6.25404V11.3316C43.7288 12.1972 44.4305 12.8989 45.2961 12.8989V12.8989Z" fill="#FF7629"/>
<path d="M9.82568 25.2266C9.82568 23.7213 11.046 22.501 12.5513 22.501H34.3563C35.8616 22.501 37.0819 23.7213 37.0819 25.2266V25.2266C37.0819 26.7319 35.8616 27.9522 34.3563 27.9522H12.5513C11.046 27.9522 9.82568 26.7319 9.82568 25.2266V25.2266Z" stroke="#FF7629" stroke-width="2.63769" stroke-linecap="round" stroke-linejoin="round"/>
<path d="M35.2646 22.6572V20.9128C35.2646 19.9281 35.0707 18.9531 34.6938 18.0434C34.317 17.1337 33.7646 16.3072 33.0683 15.611C32.372 14.9148 31.5453 14.3626 30.6356 13.9859C29.7258 13.6092 28.7508 13.4154 27.7661 13.4155H19.1411C18.1564 13.4154 17.1814 13.6092 16.2716 13.9859C15.3619 14.3626 14.5352 14.9148 13.8389 15.611C13.1426 16.3072 12.5902 17.1337 12.2134 18.0434C11.8365 18.9531 11.6426 19.9281 11.6426 20.9128V22.6572" stroke="#FF7629" stroke-width="2.63769" stroke-linecap="round" stroke-linejoin="round"/>
<path d="M35.2646 27.7971V29.7693C35.2646 30.7331 34.8817 31.6575 34.2002 32.339C33.5187 33.0205 32.5943 33.4034 31.6305 33.4034H15.2767C14.3129 33.4034 13.3885 33.0205 12.707 32.339C12.0255 31.6575 11.6426 30.7331 11.6426 29.7693V27.7971" stroke="#FF7629" stroke-width="2.63769" stroke-linecap="round" stroke-linejoin="round"/>
<path d="M81.1388 23.2734C81.1388 24.5961 80.9255 25.8654 80.4988 27.0814C80.0722 28.2761 79.4642 29.3854 78.6748 30.4094L80.9788 32.7134L78.0348 35.6894L75.5388 33.1934C73.6615 34.2814 71.6775 34.8254 69.5868 34.8254C67.4962 34.8254 65.5655 34.3134 63.7948 33.2894C62.0242 32.2441 60.6162 30.8361 59.5708 29.0654C58.5468 27.2948 58.0348 25.3641 58.0348 23.2734C58.0348 21.1828 58.5468 19.2521 59.5708 17.4814C60.6162 15.7108 62.0242 14.3134 63.7948 13.2894C65.5655 12.2441 67.4962 11.7214 69.5868 11.7214C71.6775 11.7214 73.6082 12.2441 75.3788 13.2894C77.1495 14.3134 78.5468 15.7108 79.5708 17.4814C80.6162 19.2521 81.1388 21.1828 81.1388 23.2734ZM69.5868 30.6334C70.6108 30.6334 71.5495 30.4414 72.4028 30.0574L69.8108 27.4654L72.7868 24.4894L75.6988 27.4014C76.5308 26.1214 76.9468 24.7454 76.9468 23.2734C76.9468 21.9508 76.6162 20.7241 75.9548 19.5934C75.2935 18.4628 74.3975 17.5668 73.2668 16.9054C72.1362 16.2441 70.9095 15.9134 69.5868 15.9134C68.2642 15.9134 67.0268 16.2441 65.8748 16.9054C64.7442 17.5668 63.8482 18.4628 63.1868 19.5934C62.5255 20.7241 62.1948 21.9508 62.1948 23.2734C62.1948 24.5961 62.5255 25.8228 63.1868 26.9534C63.8482 28.0841 64.7442 28.9801 65.8748 29.6414C67.0268 30.3028 68.2642 30.6334 69.5868 30.6334ZM97.9206 34.4094L93.5366 26.6654H89.3766V34.4094H85.1846V12.0094H94.2726C95.5953 12.0094 96.8219 12.3401 97.9526 13.0014C99.0833 13.6414 99.9686 14.5268 100.609 15.6574C101.27 16.7881 101.601 18.0148 101.601 19.3374C101.601 20.7028 101.259 21.9508 100.577 23.0814C99.8939 24.2121 98.9766 25.0974 97.8246 25.7374L102.689 34.4094H97.9206ZM89.3766 15.9774V22.6654H94.2726C95.1899 22.6654 95.9793 22.3454 96.6406 21.7054C97.3019 21.0441 97.6326 20.2548 97.6326 19.3374C97.6326 18.3988 97.3019 17.6094 96.6406 16.9694C96.0006 16.3081 95.2113 15.9774 94.2726 15.9774H89.3766ZM104.504 23.2734C104.504 21.1828 105.016 19.2521 106.04 17.4814C107.085 15.7108 108.493 14.3134 110.264 13.2894C112.034 12.2441 113.965 11.7214 116.056 11.7214C118.189 11.7214 120.162 12.2761 121.976 13.3854C123.789 14.4734 125.186 15.9241 126.168 17.7374L122.488 19.6894C121.848 18.5588 120.952 17.6521 119.8 16.9694C118.648 16.2654 117.4 15.9134 116.056 15.9134C114.733 15.9134 113.496 16.2441 112.344 16.9054C111.213 17.5668 110.317 18.4628 109.656 19.5934C108.994 20.7241 108.664 21.9508 108.664 23.2734C108.664 24.5961 108.994 25.8228 109.656 26.9534C110.317 28.0841 111.213 28.9801 112.344 29.6414C113.496 30.3028 114.733 30.6334 116.056 30.6334C117.442 30.6334 118.701 30.2814 119.832 29.5774C120.984 28.8734 121.88 27.9348 122.52 26.7614L126.2 28.7774C125.218 30.6121 123.821 32.0841 122.008 33.1934C120.194 34.2814 118.21 34.8254 116.056 34.8254C113.965 34.8254 112.034 34.3134 110.264 33.2894C108.493 32.2441 107.085 30.8361 106.04 29.0654C105.016 27.2948 104.504 25.3641 104.504 23.2734ZM135.918 34.8574C134.403 34.8574 132.995 34.4841 131.694 33.7374C130.414 32.9694 129.39 31.9454 128.622 30.6654C127.875 29.3641 127.502 27.9561 127.502 26.4414C127.502 24.9268 127.875 23.5294 128.622 22.2494C129.39 20.9481 130.414 19.9241 131.694 19.1774C132.995 18.4094 134.403 18.0254 135.918 18.0254C137.433 18.0254 138.83 18.4094 140.11 19.1774C141.411 19.9241 142.435 20.9481 143.182 22.2494C143.95 23.5294 144.334 24.9268 144.334 26.4414C144.334 27.9561 143.95 29.3641 143.182 30.6654C142.435 31.9454 141.411 32.9694 140.11 33.7374C138.83 34.4841 137.433 34.8574 135.918 34.8574ZM135.886 30.8894C136.697 30.8894 137.443 30.6974 138.126 30.3134C138.809 29.9081 139.353 29.3641 139.758 28.6814C140.163 27.9988 140.366 27.2521 140.366 26.4414C140.366 25.6308 140.163 24.8841 139.758 24.2014C139.353 23.5188 138.809 22.9748 138.126 22.5694C137.443 22.1641 136.697 21.9614 135.886 21.9614C135.075 21.9614 134.329 22.1641 133.646 22.5694C132.963 22.9748 132.419 23.5188 132.014 24.2014C131.63 24.8841 131.438 25.6308 131.438 26.4414C131.438 27.2521 131.63 27.9988 132.014 28.6814C132.419 29.3641 132.963 29.9081 133.646 30.3134C134.329 30.6974 135.075 30.8894 135.886 30.8894ZM159.379 12.0094H163.347V34.4094H159.379V32.8734C158.654 33.5134 157.843 34.0041 156.947 34.3454C156.051 34.6868 155.123 34.8574 154.163 34.8574C152.542 34.8574 151.123 34.4948 149.907 33.7694C148.691 33.0441 147.752 32.0414 147.091 30.7614C146.451 29.4814 146.131 28.0414 146.131 26.4414C146.131 24.8414 146.451 23.4014 147.091 22.1214C147.752 20.8414 148.691 19.8388 149.907 19.1134C151.123 18.3668 152.542 17.9934 154.163 17.9934C155.123 17.9934 156.04 18.1748 156.915 18.5374C157.811 18.8788 158.632 19.3588 159.379 19.9774V12.0094ZM154.675 31.0494C155.55 31.0494 156.339 30.8574 157.043 30.4734C157.768 30.0681 158.334 29.5134 158.739 28.8094C159.166 28.1054 159.379 27.3054 159.379 26.4094C159.379 25.0654 158.92 23.9668 158.003 23.1134C157.107 22.2601 155.998 21.8334 154.675 21.8334C153.331 21.8334 152.222 22.2708 151.347 23.1454C150.494 23.9988 150.067 25.0974 150.067 26.4414C150.067 27.7854 150.494 28.8948 151.347 29.7694C152.222 30.6228 153.331 31.0494 154.675 31.0494ZM174.324 17.9934C175.86 17.9934 177.236 18.3774 178.452 19.1454C179.69 19.8921 180.65 20.9054 181.332 22.1854C182.015 23.4654 182.356 24.8841 182.356 26.4414C182.356 26.9534 182.314 27.4228 182.228 27.8494H169.876C170.196 28.9801 170.762 29.8654 171.572 30.5054C172.383 31.1241 173.418 31.4334 174.676 31.4334C175.444 31.4334 176.18 31.2628 176.884 30.9214C177.61 30.5801 178.154 30.1428 178.516 29.6094L181.556 31.4014C180.81 32.5108 179.839 33.3641 178.644 33.9614C177.471 34.5374 176.116 34.8254 174.58 34.8254C172.874 34.8254 171.359 34.4628 170.036 33.7374C168.714 33.0121 167.69 32.0094 166.964 30.7294C166.26 29.4494 165.908 28.0094 165.908 26.4094C165.908 24.8308 166.26 23.4014 166.964 22.1214C167.69 20.8414 168.692 19.8388 169.972 19.1134C171.252 18.3668 172.703 17.9934 174.324 17.9934ZM178.644 24.7454C178.474 23.7214 177.994 22.9214 177.204 22.3454C176.436 21.7481 175.466 21.4494 174.292 21.4494C173.482 21.4494 172.735 21.5988 172.052 21.8974C171.391 22.1961 170.858 22.6014 170.452 23.1134C170.047 23.6254 169.834 24.1694 169.812 24.7454H178.644ZM205.359 23.1774L212.623 34.4094H207.631L202.447 26.3774L197.263 34.4094H192.271L199.535 23.1774L192.303 12.0094H197.295L202.447 19.9774L207.599 12.0094H212.591L205.359 23.1774Z" fill="#131313"/>
</svg>
