<svg width="243" height="46" viewBox="0 0 243 46" fill="none" xmlns="http://www.w3.org/2000/svg">
<path d="M67.9553 13.3006C69.7408 13.3006 71.3806 13.7287 72.8747 14.5851C74.3869 15.4232 75.5804 16.5802 76.4549 18.056C77.3295 19.5136 77.7668 21.1352 77.7668 22.9208C77.7668 24.7063 77.3295 26.3279 76.4549 27.7855C75.5804 29.2249 74.3869 30.3637 72.8747 31.2018C71.3806 32.0217 69.7408 32.4316 67.9553 32.4316H60.6581V13.3006H67.9553ZM67.9553 29.562C69.1942 29.562 70.333 29.2705 71.3715 28.6874C72.4101 28.1044 73.23 27.3027 73.8312 26.2824C74.4325 25.262 74.7331 24.1324 74.7331 22.8934C74.7331 21.6545 74.4325 20.5248 73.8312 19.5045C73.23 18.466 72.4101 17.6552 71.3715 17.0721C70.333 16.4709 69.1942 16.1702 67.9553 16.1702H63.6918V29.562H67.9553ZM89.473 18.7666H92.3427V32.4316H89.473V31.0651C88.9811 31.5753 88.4071 31.9944 87.7512 32.3223C87.1135 32.6321 86.4212 32.7869 85.6741 32.7869C84.8725 32.7869 84.0526 32.623 83.2144 32.295C82.3945 31.9488 81.6839 31.3384 81.0827 30.4639C80.4814 29.5893 80.1808 28.4141 80.1808 26.9383V18.7666H83.0504V26.9383C83.0504 28.1044 83.3693 28.9425 84.007 29.4527C84.6629 29.9628 85.4282 30.2179 86.3027 30.2179C87.1591 30.2179 87.897 29.9173 88.5165 29.316C89.1542 28.7147 89.473 27.74 89.473 26.3917V18.7666ZM103.696 18.4386C105.063 18.4386 106.265 18.7484 107.304 19.3679C108.343 19.9873 109.144 20.8437 109.709 21.9369C110.292 23.0301 110.584 24.2508 110.584 25.5991C110.584 26.9474 110.292 28.1681 109.709 29.2613C109.144 30.3546 108.343 31.22 107.304 31.8577C106.265 32.4772 105.063 32.7869 103.696 32.7869C102.804 32.7869 101.938 32.6138 101.1 32.2677C100.28 31.9033 99.5513 31.4022 98.9136 30.7645V37.8977H96.044V18.7666H98.9136V20.4337C99.5513 19.8142 100.28 19.3314 101.1 18.9852C101.938 18.6208 102.804 18.4386 103.696 18.4386ZM103.341 29.9993C104.161 29.9993 104.899 29.808 105.555 29.4253C106.229 29.0427 106.757 28.5234 107.14 27.8675C107.523 27.1934 107.714 26.4372 107.714 25.5991C107.714 24.761 107.523 24.0049 107.14 23.3307C106.757 22.6566 106.229 22.1282 105.555 21.7456C104.899 21.363 104.161 21.1716 103.341 21.1716C102.521 21.1716 101.774 21.363 101.1 21.7456C100.426 22.1282 99.8884 22.6657 99.4876 23.358C99.105 24.0322 98.9136 24.7883 98.9136 25.6264C98.9136 26.4646 99.105 27.2207 99.4876 27.8948C99.8884 28.5508 100.426 29.07 101.1 29.4527C101.774 29.8171 102.521 29.9993 103.341 29.9993ZM119.359 18.4113C120.689 18.4113 121.873 18.7393 122.912 19.3952C123.951 20.0329 124.761 20.9075 125.344 22.0189C125.927 23.1121 126.219 24.3146 126.219 25.6264C126.219 25.8451 126.183 26.1913 126.11 26.665H115.068C115.305 27.7582 115.815 28.6328 116.599 29.2887C117.4 29.9446 118.412 30.2726 119.632 30.2726C120.379 30.2726 121.09 30.1086 121.764 29.7806C122.457 29.4527 122.967 29.0245 123.295 28.4961L125.536 29.808C124.916 30.7554 124.096 31.4933 123.076 32.0217C122.056 32.5319 120.89 32.7869 119.578 32.7869C118.12 32.7869 116.827 32.4772 115.697 31.8577C114.585 31.2382 113.72 30.3819 113.101 29.2887C112.499 28.1955 112.199 26.9656 112.199 25.5991C112.199 24.2508 112.499 23.0301 113.101 21.9369C113.72 20.8437 114.567 19.9873 115.642 19.3679C116.735 18.7302 117.974 18.4113 119.359 18.4113ZM123.486 24.3966C123.34 23.3216 122.894 22.4744 122.147 21.8549C121.418 21.2354 120.489 20.9257 119.359 20.9257C118.576 20.9257 117.856 21.0897 117.2 21.4176C116.544 21.7274 116.025 22.1555 115.642 22.7021C115.26 23.2305 115.059 23.7953 115.041 24.3966H123.486ZM135.686 18.466C135.887 18.466 136.042 18.4751 136.151 18.4933L135.932 21.2263C135.732 21.1716 135.541 21.1443 135.358 21.1443C134.229 21.1443 133.281 21.4905 132.516 22.1829C131.751 22.857 131.368 23.8136 131.368 25.0525V32.4316H128.498V18.7666H131.368V21.0897C131.678 20.3608 132.206 19.7414 132.953 19.2312C133.719 18.721 134.63 18.466 135.686 18.466ZM157.468 22.3195C158.161 22.8297 158.698 23.4765 159.081 24.2599C159.482 25.0434 159.682 25.8815 159.682 26.7743C159.682 27.7946 159.436 28.733 158.944 29.5893C158.452 30.4457 157.787 31.1289 156.949 31.6391C156.111 32.1492 155.2 32.4043 154.216 32.4043H148.805V32.4316H145.771V13.3006H153.806C154.735 13.3006 155.592 13.5374 156.375 14.0112C157.159 14.4849 157.778 15.1317 158.234 15.9516C158.707 16.7533 158.944 17.6187 158.944 18.548C158.944 19.2403 158.808 19.9145 158.534 20.5704C158.279 21.2263 157.924 21.8093 157.468 22.3195ZM148.805 16.1976V21.2263L153.806 21.199C154.426 21.199 154.972 20.953 155.446 20.4611C155.92 19.9509 156.157 19.3496 156.157 18.6573C156.157 17.9649 155.92 17.3819 155.446 16.9081C154.99 16.4344 154.444 16.1976 153.806 16.1976H148.805ZM154.216 29.5073C154.927 29.5073 155.528 29.234 156.02 28.6874C156.53 28.1408 156.785 27.494 156.785 26.747C156.785 26 156.53 25.3531 156.02 24.8065C155.528 24.2599 154.927 23.9866 154.216 23.9866H148.805V29.5073H154.216ZM170.903 18.7666H173.772V32.4316H170.903V31.0651C170.411 31.5753 169.837 31.9944 169.181 32.3223C168.543 32.6321 167.851 32.7869 167.104 32.7869C166.302 32.7869 165.482 32.623 164.644 32.295C163.824 31.9488 163.114 31.3384 162.512 30.4639C161.911 29.5893 161.611 28.4141 161.611 26.9383V18.7666H164.48V26.9383C164.48 28.1044 164.799 28.9425 165.437 29.4527C166.093 29.9628 166.858 30.2179 167.733 30.2179C168.589 30.2179 169.327 29.9173 169.946 29.316C170.584 28.7147 170.903 27.74 170.903 26.3917V18.7666ZM184.662 18.466C184.862 18.466 185.017 18.4751 185.126 18.4933L184.908 21.2263C184.707 21.1716 184.516 21.1443 184.334 21.1443C183.204 21.1443 182.257 21.4905 181.491 22.1829C180.726 22.857 180.343 23.8136 180.343 25.0525V32.4316H177.474V18.7666H180.343V21.0897C180.653 20.3608 181.182 19.7414 181.929 19.2312C182.694 18.721 183.605 18.466 184.662 18.466ZM198.016 18.7666H200.886V31.7484C200.886 33.042 200.567 34.1808 199.929 35.1647C199.291 36.1485 198.408 36.9047 197.278 37.433C196.167 37.9796 194.909 38.253 193.507 38.253C191.921 38.253 190.5 37.9523 189.243 37.3511C188.004 36.7498 187.12 35.9481 186.592 34.946L189.052 33.5248C189.343 34.1079 189.881 34.5998 190.664 35.0007C191.466 35.4015 192.441 35.6019 193.589 35.6019C194.882 35.6019 195.939 35.2466 196.759 34.5361C197.597 33.8255 198.016 32.8963 198.016 31.7484V30.7918C197.378 31.4113 196.64 31.9033 195.802 32.2677C194.982 32.6138 194.126 32.7869 193.233 32.7869C191.867 32.7869 190.664 32.4772 189.626 31.8577C188.587 31.22 187.776 30.3637 187.193 29.2887C186.628 28.1955 186.346 26.9747 186.346 25.6264C186.346 24.2782 186.628 23.0574 187.193 21.9642C187.776 20.871 188.587 20.0147 189.626 19.3952C190.664 18.7575 191.867 18.4386 193.233 18.4386C194.126 18.4386 194.982 18.6208 195.802 18.9852C196.64 19.3314 197.378 19.8234 198.016 20.4611V18.7666ZM193.589 30.0266C194.408 30.0266 195.155 29.8353 195.83 29.4527C196.504 29.07 197.032 28.5417 197.415 27.8675C197.816 27.1934 198.016 26.4372 198.016 25.5991C198.016 24.761 197.816 24.014 197.415 23.358C197.032 22.6839 196.504 22.1646 195.83 21.8002C195.155 21.4176 194.408 21.2263 193.589 21.2263C192.769 21.2263 192.022 21.4176 191.347 21.8002C190.692 22.1646 190.172 22.6839 189.79 23.358C189.407 24.0322 189.216 24.7883 189.216 25.6264C189.216 26.4646 189.407 27.2207 189.79 27.8948C190.172 28.569 190.692 29.0974 191.347 29.48C192.022 29.8444 192.769 30.0266 193.589 30.0266ZM210.397 18.4113C211.727 18.4113 212.912 18.7393 213.95 19.3952C214.989 20.0329 215.799 20.9075 216.382 22.0189C216.965 23.1121 217.257 24.3146 217.257 25.6264C217.257 25.8451 217.221 26.1913 217.148 26.665H206.106C206.343 27.7582 206.853 28.6328 207.637 29.2887C208.438 29.9446 209.45 30.2726 210.67 30.2726C211.417 30.2726 212.128 30.1086 212.802 29.7806C213.495 29.4527 214.005 29.0245 214.333 28.4961L216.574 29.808C215.954 30.7554 215.134 31.4933 214.114 32.0217C213.094 32.5319 211.928 32.7869 210.616 32.7869C209.158 32.7869 207.865 32.4772 206.735 31.8577C205.623 31.2382 204.758 30.3819 204.139 29.2887C203.537 28.1955 203.237 26.9656 203.237 25.5991C203.237 24.2508 203.537 23.0301 204.139 21.9369C204.758 20.8437 205.605 19.9873 206.68 19.3679C207.773 18.7302 209.012 18.4113 210.397 18.4113ZM214.524 24.3966C214.378 23.3216 213.932 22.4744 213.185 21.8549C212.456 21.2354 211.527 20.9257 210.397 20.9257C209.614 20.9257 208.894 21.0897 208.238 21.4176C207.582 21.7274 207.063 22.1555 206.68 22.7021C206.298 23.2305 206.097 23.7953 206.079 24.3966H214.524ZM226.724 18.466C226.925 18.466 227.08 18.4751 227.189 18.4933L226.97 21.2263C226.77 21.1716 226.579 21.1443 226.396 21.1443C225.267 21.1443 224.319 21.4905 223.554 22.1829C222.789 22.857 222.406 23.8136 222.406 25.0525V32.4316H219.537V18.7666H222.406V21.0897C222.716 20.3608 223.244 19.7414 223.991 19.2312C224.757 18.721 225.668 18.466 226.724 18.466ZM231.31 22.5381C231.31 22.9936 231.537 23.3307 231.993 23.5494C232.467 23.7498 233.223 23.9775 234.261 24.2326C235.318 24.4695 236.193 24.7246 236.885 24.9979C237.577 25.2529 238.169 25.6629 238.661 26.2277C239.172 26.7925 239.427 27.5578 239.427 28.5234C239.427 29.398 239.172 30.1632 238.661 30.8192C238.151 31.4569 237.459 31.9488 236.584 32.295C235.728 32.623 234.78 32.7869 233.742 32.7869C232.339 32.7869 231.136 32.5136 230.134 31.967C229.132 31.4022 228.403 30.6187 227.948 29.6166L230.298 28.3868C230.572 29.0791 231 29.5984 231.583 29.9446C232.184 30.2726 232.904 30.4365 233.742 30.4365C234.525 30.4365 235.2 30.2726 235.764 29.9446C236.347 29.6166 236.639 29.152 236.639 28.5508C236.639 28.0224 236.375 27.6398 235.846 27.4029C235.336 27.1478 234.525 26.8836 233.414 26.6103C232.339 26.337 231.474 26.0819 230.818 25.8451C230.18 25.59 229.624 25.2074 229.15 24.6972C228.677 24.1688 228.44 23.4765 228.44 22.6201C228.44 21.782 228.677 21.0441 229.15 20.4064C229.624 19.7687 230.262 19.2768 231.064 18.9306C231.865 18.5844 232.758 18.4113 233.742 18.4113C234.908 18.4113 235.947 18.6664 236.858 19.1765C237.787 19.6685 238.497 20.3608 238.989 21.2536L236.639 22.4288C236.129 21.3174 235.163 20.7617 233.742 20.7617C232.995 20.7617 232.403 20.9257 231.965 21.2536C231.528 21.5634 231.31 21.9915 231.31 22.5381Z" fill="#131313"/>
<line x1="31.4789" y1="15.54" x2="31.4789" y2="45.4456" stroke="#FF7629" stroke-width="2.32595"/>
<path d="M27.3989 1.16895C27.3989 1.16895 27.3989 11.1695 27.3989 12.484C27.3989 13.7984 30.0052 16.6405 31.6655 16.6405C33.3258 16.6405 36.434 14.0382 36.434 12.484C36.434 10.9297 36.434 1.16895 36.434 1.16895" stroke="#FF7629" stroke-width="2.32595"/>
<path d="M36.4341 10.8608L27.3993 10.8606" stroke="#FF7629" stroke-width="2.32595"/>
<path d="M31.917 10.8083L31.917 1.14551" stroke="#FF7629" stroke-width="2.19673"/>
<path d="M18.9416 30.2985C19.7096 30.2985 20.7676 30.9638 21.7142 32.5212C22.6203 34.0122 23.231 36.0387 23.231 38.0768C23.231 40.1842 22.7755 41.7563 22.0443 42.7694C21.3479 43.7342 20.3417 44.2823 18.9416 44.2823C17.5686 44.2823 16.5863 43.7188 15.901 42.716C15.179 41.6596 14.7421 40.0382 14.7421 37.9212C14.7421 35.8766 15.3336 33.8903 16.2136 32.444C17.1287 30.9401 18.1626 30.2985 18.9416 30.2985Z" stroke="#FF7629" stroke-width="2.32595"/>
<path d="M18.7425 1.34582L18.7425 30.9412" stroke="#FF7629" stroke-width="2.32595"/>
<line x1="7.70204" y1="1" x2="7.70204" y2="45.2764" stroke="#FF7629" stroke-width="2.32595"/>
<path d="M7.02761 2.05469C7.02761 2.05469 2.00018 4.35868 2.00018 10.7132C2.00018 17.0678 7.16894 20.3829 7.16894 20.3829" stroke="#FF7629" stroke-width="2.32595"/>
</svg>
