<svg width="225" height="225" viewBox="0 0 225 225" fill="none" xmlns="http://www.w3.org/2000/svg">
<rect width="225" height="225" fill="#FF7629"/>
<mask id="mask0_1224_28338" style="mask-type:alpha" maskUnits="userSpaceOnUse" x="0" y="0" width="225" height="225">
<circle cx="112.5" cy="112.5" r="112.5" fill="#FF7629"/>
</mask>
<g mask="url(#mask0_1224_28338)">
<rect x="-0.146484" width="225.423" height="225.423" fill="#FF7629"/>
<line x1="145.666" y1="91.7256" x2="145.666" y2="174.539" stroke="white" stroke-width="6.44088"/>
<path d="M134.368 51.9297C134.368 51.9297 134.368 79.6227 134.368 83.2626C134.368 86.9025 141.585 94.7727 146.183 94.7727C150.781 94.7727 159.388 87.5666 159.388 83.2626C159.388 78.9586 159.388 51.9297 159.388 51.9297" stroke="white" stroke-width="6.44088"/>
<path d="M159.388 78.7676L134.37 78.767" stroke="white" stroke-width="6.44088"/>
<path d="M146.879 78.622L146.879 51.8643" stroke="white" stroke-width="6.08305"/>
<path d="M110.948 132.594C113.075 132.594 116.005 134.437 118.626 138.749C121.135 142.878 122.826 148.49 122.826 154.134C122.826 159.969 121.565 164.323 119.54 167.128C117.612 169.8 114.825 171.318 110.948 171.318C107.146 171.318 104.426 169.757 102.528 166.98C100.529 164.055 99.3191 159.565 99.3191 153.703C99.3191 148.041 100.957 142.54 103.394 138.535C105.928 134.371 108.791 132.594 110.948 132.594Z" stroke="white" stroke-width="6.44088"/>
<path d="M110.398 52.4197L110.398 134.374" stroke="white" stroke-width="6.44088"/>
<line x1="79.8254" y1="51.4619" x2="79.8254" y2="174.07" stroke="white" stroke-width="6.44088"/>
<path d="M77.9573 54.3828C77.9573 54.3828 64.0356 60.7629 64.0356 78.3596C64.0356 95.9563 78.3486 105.136 78.3486 105.136" stroke="white" stroke-width="6.44088"/>
</g>
</svg>
