<svg width="223" height="101" viewBox="0 0 223 101" fill="none" xmlns="http://www.w3.org/2000/svg">
<rect y="0.46875" width="223" height="100" fill="#F0FBF6"/>
<path d="M147.491 53.8994C147.491 51.0133 145.178 48.7456 142.261 48.7456C139.384 48.7456 137.03 51.0133 137.03 53.8994C137.03 56.7856 139.384 59.0532 142.261 59.0532C145.178 59.0532 147.491 56.7856 147.491 53.8994V53.8994ZM151.758 45.4609V62.3517H147.408V60.8262C145.894 62.0768 143.981 62.7777 141.903 62.7777C136.755 62.7777 132.736 58.8334 132.736 53.8994C132.736 48.9793 136.769 45.0211 141.903 45.0211C143.981 45.0211 145.894 45.722 147.408 46.9727V45.4609H151.758V45.4609ZM166.21 58.5173H162.934C161.943 58.5173 161.296 58.0912 161.296 57.1841V49.2816H166.196V45.4609H161.296V40.6507H156.905V45.4609H153.602V49.2954H156.905V58.2699C156.905 60.5375 158.543 62.3379 161.489 62.3379H166.196V58.5173H166.21ZM176.12 62.7777C181.143 62.7777 183.979 60.4276 183.979 57.1841C183.979 54.8752 182.3 53.1573 178.79 52.4151L175.074 51.673C172.926 51.2882 172.238 50.8896 172.238 50.1062C172.238 49.0892 173.271 48.4707 175.184 48.4707C177.262 48.4707 178.776 49.0205 179.217 50.8896H183.566C183.332 47.3713 180.731 45.0211 175.473 45.0211C170.931 45.0211 167.737 46.8628 167.737 50.4223C167.737 52.8824 169.499 54.4904 173.284 55.2738L177.427 56.2083C179.065 56.5244 179.506 56.9505 179.506 57.6102C179.506 58.6684 178.267 59.3281 176.271 59.3281C173.766 59.3281 172.321 58.7784 171.77 56.9093H167.38C168.027 60.4276 170.697 62.7777 176.12 62.7777V62.7777ZM115.187 39.4688H131.58V43.3719H119.619V48.9655H131.263V52.7587H119.619V58.421H131.58V62.3242H115.187V39.4688Z" fill="#06C167"/>
<path d="M107.396 48.6087V45.5439H106.226C104.368 45.5439 102.991 46.396 102.165 47.7291V45.6676H98.8346V62.3109H102.193V52.8554C102.193 50.2716 103.79 48.6087 105.992 48.6087H107.396V48.6087ZM83.2264 52.4569C83.832 49.9143 85.9241 48.2101 88.4154 48.2101C90.9066 48.2101 93.0125 49.9006 93.5768 52.4569H83.2264ZM88.4842 45.3515C83.5292 45.3515 79.7579 49.2958 79.7579 53.9961C79.7579 58.9575 83.6806 62.682 88.787 62.682C91.8839 62.682 94.4164 61.3489 96.1094 59.1225L93.6732 57.3633C92.4069 59.0262 90.7415 59.8096 88.7732 59.8096C85.9103 59.8096 83.6118 57.7893 83.1438 55.0819H96.9627V54.0099C96.9765 49.0347 93.3841 45.3515 88.4842 45.3515ZM69.2698 59.8096C66.0078 59.8096 63.4064 57.2258 63.4064 54.0374C63.4064 50.8076 66.0353 48.2651 69.2698 48.2651C72.463 48.2651 75.0919 50.8076 75.0919 54.0374C75.1057 57.2258 72.4768 59.8096 69.2698 59.8096ZM60.1168 62.3247H63.4477V60.2357C64.9755 61.7749 67.1502 62.7095 69.5038 62.7095C74.5001 62.7095 78.4228 58.8201 78.4228 54.0236C78.4228 49.1996 74.5001 45.3102 69.5038 45.3102C67.1364 45.3102 65.003 46.2585 63.4752 47.7841V39.4692H60.1168V62.3247V62.3247ZM48.2937 59.6447C51.5282 59.6447 54.0194 57.1984 54.0194 53.5701V39.4692H57.5155V62.3109H54.047V60.1944C52.4779 61.7887 50.317 62.7095 47.8807 62.7095C42.8845 62.7095 39.0581 59.1499 39.0581 53.7625V39.4692H42.5679V53.5701C42.5679 57.2671 45.0316 59.6447 48.2937 59.6447Z" fill="#142328"/>
</svg>
