<svg width="223" height="101" viewBox="0 0 223 101" fill="none" xmlns="http://www.w3.org/2000/svg">
<rect y="0.84375" width="223" height="100" fill="#FFF2ED"/>
<path d="M126.03 46.6257H123.597V59.3347H126.03V46.6257Z" fill="#363636"/>
<path d="M105.535 59.3346V41.2681H111.743C117.39 41.2681 120.415 45.2551 120.415 50.3012C120.415 55.4409 117.265 59.3344 111.712 59.3344H105.535V59.3346ZM111.275 57.1853C115.643 57.1853 117.982 54.9114 117.982 50.3012C117.982 45.5978 115.487 43.4172 111.369 43.4172H107.968V57.1851H111.275V57.1853Z" fill="#363636"/>
<path d="M123.258 42.3894C123.258 41.5174 123.945 40.8318 124.818 40.8318C125.692 40.8318 126.378 41.5172 126.378 42.3894C126.378 43.2616 125.692 43.9471 124.818 43.9471C123.945 43.9469 123.258 43.2304 123.258 42.3894Z" fill="#363636"/>
<path d="M101.325 46.6257H98.8921V59.3347H101.325V46.6257Z" fill="#363636"/>
<path d="M80.7368 59.3337V41.2671H86.9447C92.5912 41.2671 95.6171 45.2542 95.6171 50.3002C95.6171 55.44 92.4663 59.3335 86.9136 59.3335H80.7368V59.3337ZM86.4768 57.1843C90.844 57.1843 93.1837 54.9104 93.1837 50.3002C93.1837 45.5968 90.6881 43.4162 86.5703 43.4162H83.1701V57.1842H86.4768V57.1843Z" fill="#363636"/>
<path d="M98.5498 42.3894C98.5498 41.5174 99.2361 40.8318 100.11 40.8318C100.983 40.8318 101.669 41.5172 101.669 42.3894C101.669 43.2616 100.983 43.9471 100.11 43.9471C99.2672 43.9469 98.5498 43.2304 98.5498 42.3894Z" fill="#363636"/>
<path d="M150.023 46.2517C145.936 46.2517 143.69 48.5878 143.69 52.7931C143.69 57.0292 145.936 59.3342 150.023 59.3342C154.109 59.3342 156.355 56.9979 156.355 52.7931C156.324 48.5567 154.078 46.2517 150.023 46.2517ZM150.023 57.8393C146.778 57.8393 145.187 56.1882 145.187 52.7618C145.187 49.3353 146.778 47.6843 150.023 47.6843C153.267 47.6843 154.858 49.3353 154.858 52.7618C154.858 56.1882 153.267 57.8393 150.023 57.8393Z" fill="#363636"/>
<path d="M163.937 46.2517C159.851 46.2517 157.604 48.5878 157.604 52.7931C157.604 57.0292 159.851 59.3342 163.937 59.3342C168.024 59.3342 170.27 56.9979 170.27 52.7931C170.238 48.5567 167.992 46.2517 163.937 46.2517ZM163.937 57.8393C160.693 57.8393 159.102 56.1882 159.102 52.7618C159.102 49.3353 160.693 47.6843 163.937 47.6843C167.182 47.6843 168.772 49.3353 168.772 52.7618C168.772 56.1882 167.181 57.8393 163.937 57.8393Z" fill="#363636"/>
<path d="M134.518 42.2956H144.002V40.8938H132.99V59.3341H134.518V51.1419H142.38V49.7089H134.518V42.2956Z" fill="#363636"/>
<path d="M182.184 41.1432V48.0896C181.155 46.8748 179.595 46.2206 177.536 46.2206C173.637 46.2206 171.484 48.5569 171.484 52.7932C171.484 57.0293 173.637 59.3656 177.536 59.3656C179.564 59.3656 181.124 58.7114 182.153 57.5279L182.278 59.1474H183.619V40.8318L182.184 41.1432ZM177.567 57.8392C174.51 57.8392 173.013 56.1882 173.013 52.7618C173.013 49.3353 174.51 47.6843 177.567 47.6843C180.625 47.6843 182.122 49.3353 182.122 52.7618C182.122 56.1882 180.625 57.8392 177.567 57.8392Z" fill="#363636"/>
<path d="M56.5311 57.4959C62.1149 57.3089 66.576 52.8857 66.6382 47.3414V42.6067H72.7837V47.8709C72.6589 56.4057 65.2344 63.165 56.5309 63.352C47.6716 63.2897 40.1849 56.4993 40.0601 47.8709V38.4327C40.0601 37.4669 40.6839 36.844 41.6198 36.844H66.6071V42.6067H47.0166C46.5174 42.6067 46.2056 42.9183 46.2056 43.4164V47.2478C46.268 52.8548 50.7913 57.4336 56.5311 57.4959Z" fill="#F47C46"/>
</svg>
