<svg width="330" height="330" viewBox="0 0 330 330" fill="none" xmlns="http://www.w3.org/2000/svg">
<mask id="mask0_1228_27165" style="mask-type:alpha" maskUnits="userSpaceOnUse" x="0" y="0" width="330" height="330">
<rect width="330" height="330" fill="#FFF6F1"/>
</mask>
<g mask="url(#mask0_1228_27165)">
<rect width="330" height="330" fill="#FFF6F1"/>
<path d="M201.546 105.237H207.912C212.559 105.002 217.112 106.597 220.591 109.678C224.069 112.759 226.194 117.08 226.507 121.708C226.212 126.349 224.095 130.688 220.614 133.784C217.134 136.88 212.57 138.485 207.912 138.25H201.689" stroke="#FF7629" stroke-width="8" stroke-linecap="round" stroke-linejoin="round"/>
<path d="M184.81 176.825C184.373 175.703 183.621 174.73 182.645 174.022C181.668 173.314 180.508 172.901 179.303 172.833H150.695C149.44 172.846 148.218 173.234 147.186 173.946C146.154 174.657 145.358 175.66 144.902 176.825L129.239 217.468C128.739 218.836 128.737 220.335 129.234 221.704C129.731 223.072 130.695 224.223 131.957 224.955C141.692 231.207 153.026 234.531 164.606 234.531C176.185 234.531 187.52 231.207 197.254 224.955C198.517 224.223 199.48 223.072 199.977 221.704C200.474 220.335 200.472 218.836 199.972 217.468L184.81 176.825Z" stroke="#FF7629" stroke-width="8" stroke-linecap="round" stroke-linejoin="round"/>
<path d="M144.26 177.966L125.307 170.836C124.409 170.495 123.428 170.435 122.495 170.664C121.562 170.894 120.722 171.401 120.086 172.12L98.0577 196.505C97.288 197.314 96.8589 198.385 96.8589 199.5C96.8589 200.614 97.288 201.686 98.0577 202.495C106.892 210.485 118.136 215.325 130.027 216.256" stroke="#FF7629" stroke-width="8" stroke-linecap="round" stroke-linejoin="round"/>
<path d="M98.4866 196.077C92.8828 190.788 88.7657 184.128 86.5448 176.76C84.3239 169.392 84.0766 161.573 85.8276 154.08C86.0403 153.128 86.5037 152.249 87.1699 151.535C87.8361 150.821 88.6812 150.296 89.6182 150.015C90.5501 149.669 91.5672 149.62 92.5284 149.875C93.4896 150.131 94.3471 150.678 94.9822 151.442C99.678 161.561 107.992 169.57 118.298 173.902" stroke="#FF7629" stroke-width="8" stroke-linecap="round" stroke-linejoin="round"/>
<path d="M185.313 178.109L204.695 170.622C205.593 170.281 206.574 170.221 207.507 170.45C208.44 170.68 209.28 171.187 209.916 171.906L231.944 196.505C232.714 197.314 233.143 198.386 233.143 199.5C233.143 200.615 232.714 201.687 231.944 202.495C222.996 210.615 211.548 215.467 199.474 216.256" stroke="#FF7629" stroke-width="8" stroke-linecap="round" stroke-linejoin="round"/>
<path d="M231.514 196.077C237.117 190.788 241.235 184.128 243.455 176.76C245.676 169.392 245.924 161.573 244.173 154.08C243.96 153.128 243.497 152.249 242.83 151.535C242.164 150.821 241.319 150.296 240.382 150.015C239.45 149.669 238.433 149.62 237.472 149.875C236.511 150.131 235.653 150.678 235.018 151.442C230.322 161.561 222.008 169.57 211.703 173.902" stroke="#FF7629" stroke-width="8" stroke-linecap="round" stroke-linejoin="round"/>
<path d="M201.546 154.294V106.164C201.546 103.328 200.416 100.607 198.404 98.6014C196.392 96.5956 193.663 95.4688 190.818 95.4688H137.178C134.333 95.4688 131.604 96.5956 129.592 98.6014C127.58 100.607 126.45 103.328 126.45 106.164V153.723" stroke="#FF7629" stroke-width="8" stroke-linecap="round" stroke-linejoin="round"/>
</g>
</svg>
