<svg width="223" height="101" viewBox="0 0 223 101" fill="none" xmlns="http://www.w3.org/2000/svg">
<rect y="0.547363" width="223" height="100" fill="#FFF0ED"/>
<path d="M142.121 39.4071C143.072 39.3845 143.998 39.7103 144.715 40.3221C145.452 40.9871 145.961 41.8569 146.177 42.8145C146.455 44.0304 146.511 45.285 146.341 46.5199C146.125 48.1589 145.707 49.7665 145.099 51.3079C144.54 52.8242 143.822 54.2799 142.958 55.6516C142.59 56.2253 142.197 56.7827 141.779 57.3221C141.769 57.3361 141.764 57.3529 141.765 57.37C141.766 57.387 141.772 57.4033 141.783 57.4165C141.806 57.4431 141.846 57.4511 141.878 57.4351C142.111 57.3086 142.339 57.1728 142.561 57.0282C143.087 56.693 143.593 56.3312 144.078 55.9429C145.393 54.8822 146.347 53.4529 146.809 51.8465C147.089 50.8769 147.393 49.918 147.734 48.9737C148.25 47.507 148.835 46.0646 149.488 44.6513C149.935 43.6565 150.437 42.6864 150.991 41.7452C151.385 41.0696 152.057 40.5895 152.835 40.4285C153.519 40.2757 154.231 40.2861 154.911 40.4591C155.531 40.6118 156.088 40.9463 156.509 41.418C156.943 41.8662 157.052 42.5299 156.782 43.0885C156.703 43.292 156.518 43.7429 156.177 44.4557C155.835 45.1673 155.477 46.0291 155.071 46.988C154.664 47.9456 154.246 48.9857 153.829 50.0723C153.451 51.0403 153.134 52.0299 152.878 53.0355C152.682 53.7381 152.597 54.4662 152.627 55.1941C152.671 55.7287 152.88 55.7287 152.988 55.7287C153.32 55.6875 153.626 55.5372 153.859 55.3032C154.322 54.9228 154.76 54.5131 155.17 54.0782C155.632 53.5941 156.066 53.0861 156.468 52.5541C156.836 52.066 157.154 51.6364 157.41 51.2706C157.519 51.1157 157.665 50.9893 157.835 50.9025C158.005 50.8158 158.195 50.7714 158.386 50.7732C158.795 50.7732 159.178 50.9714 159.41 51.3012L159.349 51.3212C159.45 51.4744 159.503 51.6537 159.5 51.8363C159.497 52.0189 159.439 52.1965 159.333 52.3466C159.059 52.7682 158.581 53.4771 157.871 54.5118C157.107 55.6103 156.271 56.6588 155.368 57.6506C154.422 58.7031 153.363 59.6536 152.21 60.4861C151.197 61.276 149.95 61.7247 148.656 61.7656C147.594 61.7656 146.805 61.4052 146.303 60.687C145.814 59.9023 145.576 58.992 145.62 58.0735V57.9033C145.621 57.8742 145.614 57.8454 145.599 57.8204C145.584 57.7953 145.561 57.7752 145.535 57.7623C145.508 57.7495 145.478 57.7447 145.448 57.7485C145.418 57.7523 145.39 57.7645 145.368 57.7836C145.141 57.9591 144.913 58.1347 144.685 58.3076C143.232 59.3623 141.641 60.222 139.956 60.8638C138.313 61.4889 136.566 61.8002 134.805 61.7855C134.559 61.7855 134.307 61.7696 134.054 61.7696C132.797 61.7656 131.864 61.3746 131.28 60.6098C131.178 60.4762 131.083 60.3368 130.998 60.1922C130.983 60.1655 130.961 60.1438 130.933 60.1298C130.906 60.1159 130.875 60.1103 130.844 60.1139C130.814 60.1175 130.785 60.1301 130.762 60.15C130.738 60.1699 130.722 60.1962 130.714 60.2254C130.52 60.8466 130.345 61.4517 130.178 62.0263C129.817 63.2658 129.499 64.3484 129.242 65.3047C128.987 66.2596 128.744 67.1853 128.559 67.9301C128.375 68.6749 128.246 69.284 128.178 69.7309V69.7482C128.088 70.3759 127.601 70.8787 126.966 71.001C126.756 71.0463 126.545 71.0675 126.33 71.0675C125.913 71.0623 125.5 70.9877 125.108 70.8468C124.45 70.6088 123.863 70.2139 123.4 69.6976C122.881 69.1255 122.605 68.3812 122.626 67.6162C122.69 66.9818 122.816 66.3554 123.001 65.7449C123.247 64.7434 123.578 63.5105 123.992 62.0701C124.258 61.0939 124.599 60.0313 124.941 58.8955C124.952 58.8653 124.952 58.8326 124.942 58.8022C124.933 58.7718 124.913 58.7453 124.887 58.7265C124.861 58.7071 124.829 58.6966 124.796 58.6966C124.763 58.6966 124.731 58.7071 124.705 58.7265C123.424 59.5809 122.05 60.292 120.607 60.8466C118.966 61.4717 117.217 61.7842 115.456 61.7696C115.211 61.7696 114.958 61.7523 114.706 61.7523C113.448 61.7496 112.517 61.3586 111.933 60.5925C111.83 60.459 111.735 60.3195 111.648 60.1749C111.633 60.1487 111.611 60.1274 111.584 60.1138C111.557 60.1001 111.526 60.0947 111.495 60.0983C111.465 60.1019 111.437 60.1142 111.413 60.1338C111.39 60.1534 111.374 60.1793 111.366 60.2082C111.172 60.8333 110.996 61.4344 110.829 62.0103C110.468 63.2525 110.164 64.3285 109.894 65.2874C109.625 66.2463 109.378 67.168 109.195 67.9168C109.042 68.5116 108.914 69.1124 108.812 69.7176V69.7349C108.722 70.3626 108.235 70.8654 107.599 70.9877C107.392 71.0325 107.18 71.0548 106.968 71.0542C106.551 71.049 106.138 70.9744 105.746 70.8335C105.088 70.5955 104.501 70.2006 104.038 69.6843C103.519 69.1122 103.243 68.3679 103.264 67.6029C103.328 66.9685 103.454 66.3421 103.639 65.7316C104.188 63.5806 104.789 61.4428 105.442 59.3197C105.452 59.2879 105.451 59.2537 105.439 59.2225C105.428 59.1912 105.406 59.1646 105.377 59.1468C105.348 59.1297 105.314 59.1224 105.28 59.126C105.246 59.1296 105.214 59.1439 105.19 59.1668C104.683 59.6243 104.152 60.0565 103.598 60.4595C102.601 61.2535 101.366 61.7074 100.082 61.7523C99.023 61.7523 98.2314 61.3919 97.7291 60.6737C97.5187 60.3654 97.3584 60.0272 97.2539 59.6708C97.231 59.5944 97.188 59.5253 97.1291 59.4704C97.0702 59.4155 96.9976 59.3769 96.9186 59.3583C96.8393 59.3393 96.7564 59.3413 96.6781 59.3639C96.5999 59.3866 96.5292 59.4292 96.4732 59.4873C96.127 59.8424 95.7482 60.1656 95.3396 60.4489C94.794 60.8277 94.2019 61.1379 93.5773 61.3719C92.8984 61.6219 92.1789 61.7483 91.4539 61.743C90.4918 61.76 89.5554 61.4386 88.8145 60.8372C88.0474 60.194 87.4895 59.3446 87.2097 58.394C86.8717 57.1887 86.7563 55.9338 86.869 54.6887C86.9993 53.0648 87.3319 51.4608 87.8601 49.914C89.0548 46.3164 90.5727 43.6897 92.4857 41.9873C94.3973 40.2822 96.3402 39.4164 98.2559 39.4164C98.9701 39.3901 99.6782 39.5557 100.303 39.8952C100.818 40.1878 101.24 40.6147 101.522 41.1268C101.708 41.4699 101.844 41.837 101.926 42.2174C101.93 42.2319 101.938 42.2449 101.95 42.2549C101.961 42.2648 101.976 42.2712 101.991 42.2732C102.006 42.2751 102.022 42.2728 102.036 42.2664C102.049 42.2601 102.061 42.25 102.07 42.2373C102.165 42.0657 102.257 41.9128 102.345 41.7718C102.537 41.4407 102.798 41.1528 103.111 40.9267C103.424 40.7005 103.782 40.5413 104.162 40.4591C104.846 40.3049 105.558 40.3141 106.238 40.4857C106.869 40.6347 107.438 40.9712 107.867 41.4486C108.301 41.8968 108.41 42.5605 108.138 43.1191C108.061 43.3186 107.856 43.7801 107.536 44.485C106.692 46.3345 105.906 48.2089 105.179 50.1055C104.801 51.0736 104.485 52.0631 104.23 53.0688C104.033 53.7713 103.947 54.4994 103.977 55.2273C104.022 55.762 104.23 55.762 104.34 55.762C104.671 55.7208 104.978 55.5705 105.21 55.3364C105.449 55.1303 105.699 54.9108 105.951 54.6687C106.908 53.7744 107.624 52.6624 108.037 51.4315C108.62 49.7438 109.238 48.0773 109.87 46.4707C110.473 44.9291 111.127 43.4068 111.83 41.9061C112.116 41.2584 112.673 40.7624 113.36 40.5429C113.99 40.3368 114.664 40.2915 115.315 40.4126C115.935 40.5205 116.517 40.7814 117.006 41.1707C117.202 41.3244 117.372 41.5086 117.508 41.716C117.542 41.7519 117.58 41.7585 117.627 41.716C118.196 41.1973 118.811 40.7318 119.464 40.3221C120.442 39.7111 121.58 39.393 122.739 39.4071C123.69 39.3849 124.614 39.7112 125.332 40.3221C126.067 40.9871 126.574 41.8583 126.788 42.8145C127.066 44.0301 127.122 45.2857 126.951 46.5199C126.735 48.159 126.318 49.7667 125.708 51.3079C125.15 52.8242 124.433 54.2798 123.569 55.6516C123.186 56.2501 122.795 56.8087 122.394 57.3221C122.384 57.3358 122.378 57.3528 122.379 57.37C122.38 57.3872 122.387 57.4037 122.398 57.4165C122.421 57.4431 122.461 57.4511 122.493 57.4351C122.72 57.3114 122.948 57.1758 123.175 57.0282C123.554 56.7848 123.909 56.5334 124.245 56.2727C125.567 55.2786 126.555 53.9196 127.082 52.3705C127.751 50.3807 128.47 48.4077 129.24 46.4534C129.842 44.9114 130.495 43.389 131.199 41.8889C131.485 41.2412 132.042 40.7451 132.729 40.5256C133.359 40.3195 134.032 40.2742 134.684 40.3953C135.304 40.5038 135.885 40.7646 136.374 41.1534C136.578 41.313 136.754 41.5018 136.894 41.716C136.928 41.7519 136.966 41.7585 137.014 41.716C137.582 41.1979 138.197 40.7314 138.851 40.3221C139.827 39.7115 140.963 39.3935 142.121 39.4071V39.4071ZM78.5355 30.8526C79.9975 30.8509 81.4546 31.0165 82.8774 31.346C84.2312 31.6476 85.5291 32.1528 86.725 32.8436C87.822 33.4751 88.7693 34.3278 89.5042 35.3453C90.2306 36.3774 90.608 37.6063 90.5863 38.8565C90.5991 40.2352 90.2736 41.5967 89.6373 42.8265C88.9922 44.0523 88.1277 45.1546 87.0848 46.081C85.9605 47.076 84.7036 47.9172 83.3485 48.5814C82.1564 49.1692 80.9182 49.6627 79.6447 50.0537C79.6099 50.0595 79.5788 50.0786 79.5583 50.1067C79.5377 50.1349 79.5292 50.1698 79.5347 50.204C79.5619 50.8357 79.6108 51.4542 79.6705 52.0553C79.7438 52.7429 79.8429 53.4146 79.9583 54.0596C80.1493 55.1142 80.4258 56.1522 80.7852 57.1638C81.204 58.344 81.7786 59.4654 82.4945 60.4994C82.747 60.8492 83.0213 61.1844 83.3186 61.5009C83.5929 61.7935 83.8888 62.0688 84.2025 62.3228C84.4957 62.5596 84.808 62.775 85.1338 62.9679C85.7519 63.3326 86.4271 63.595 87.1324 63.7446C87.4786 63.8217 87.8316 63.871 88.1873 63.8922C88.5539 63.9188 88.9204 63.9188 89.287 63.8922C89.6726 63.8603 90.0555 63.7991 90.4329 63.7127C90.8375 63.6196 91.2339 63.4999 91.6209 63.3549C92.0417 63.1993 92.4504 63.0184 92.8469 62.8136C93.0043 62.7338 93.1578 62.65 93.3153 62.5636C93.5596 62.422 93.8492 62.3753 94.1269 62.4326C94.4047 62.4899 94.6504 62.647 94.8158 62.8731C94.9811 63.0991 95.0539 63.3776 95.0199 63.6537C94.986 63.9297 94.8476 64.1833 94.6322 64.3644C93.9299 64.9665 93.1948 65.5308 92.43 66.0548C91.9569 66.3786 91.4685 66.6804 90.9665 66.9592C90.7181 67.1013 90.465 67.2353 90.2075 67.3609C89.7187 67.6042 89.2164 67.8224 88.7018 68.0125C88.2142 68.1905 87.7159 68.3388 87.2097 68.4568C86.3991 68.6535 85.5671 68.7535 84.732 68.7547H84.3287C83.6428 68.7242 82.9625 68.619 82.3003 68.4408C82.0833 68.3818 81.8691 68.3134 81.6582 68.236C80.8182 67.9318 80.0283 67.5088 79.3134 66.9805C78.6454 66.4866 78.0422 65.9139 77.5172 65.2754C77.2129 64.9157 76.9304 64.5386 76.6714 64.1463C76.1187 63.3122 75.6508 62.427 75.2743 61.5036C74.8639 60.493 74.5316 59.4535 74.2805 58.394C74.1474 57.8355 74.0361 57.2569 73.9397 56.6757C73.852 56.1469 73.7814 55.6155 73.7279 55.0824C73.7265 55.0456 73.7116 55.0105 73.6859 54.9837C73.6602 54.9568 73.6255 54.9399 73.5881 54.9361C73.5505 54.933 73.5131 54.9435 73.4828 54.9655C73.4526 54.9876 73.4316 55.0196 73.4238 55.0558H73.417C73.212 55.7633 73.0206 56.4523 72.8712 57.1066C72.6431 57.9445 72.449 58.6973 72.2874 59.3649C72.1163 60.0339 71.9969 60.5553 71.9453 60.9423C71.8339 61.6046 71.2936 62.1167 70.6147 62.2058C69.9339 62.3231 69.2336 62.2654 68.5823 62.0382C67.8815 61.8094 67.2454 61.4226 66.725 60.9091C66.4418 60.6358 66.2187 60.3086 66.0695 59.9476C65.9203 59.5867 65.8481 59.1996 65.8574 58.8103C65.9212 57.7078 66.0977 56.6159 66.3842 55.5465C66.725 54.0636 67.23 52.2987 67.8722 50.3104C68.579 48.1364 69.3441 45.9811 70.1667 43.8466C70.927 41.841 71.7824 39.8566 72.7056 37.8816C73.0097 37.2352 73.637 36.791 74.3592 36.7085C75.7747 36.5151 77.2135 36.5614 78.6129 36.8455C78.7824 36.8847 78.9411 36.9601 79.0774 37.0663C79.2138 37.1725 79.3246 37.3068 79.4019 37.4598C79.4792 37.6127 79.5211 37.7805 79.5246 37.9511C79.528 38.1217 79.493 38.291 79.4221 38.4468C78.6639 40.1035 77.9549 41.7813 77.2959 43.4782C76.78 44.8148 76.2709 46.1315 75.816 47.411C75.8061 47.4393 75.8048 47.4699 75.8122 47.4989C75.8197 47.528 75.8357 47.5543 75.8581 47.5746C75.9043 47.6145 75.9722 47.6251 76.0292 47.5985C76.6646 47.3059 77.2796 46.9708 77.8689 46.5957C78.8527 45.978 79.7504 45.2376 80.5394 44.3932C81.3131 43.5624 81.9511 42.6194 82.4307 41.5976C82.9114 40.5681 83.1583 39.4486 83.1543 38.3165C83.1543 36.8163 82.7307 35.7097 81.8944 35.0248C81.0581 34.3398 79.8524 33.9728 78.3332 33.9728C76.8061 33.9528 75.3016 34.3345 73.9764 35.078C72.6925 35.7998 71.5437 36.7308 70.5794 37.8311C69.6728 38.8603 68.9311 40.0187 68.38 41.2664C67.9181 42.2381 67.6551 43.2892 67.6061 44.36C67.6192 44.6442 67.533 44.9243 67.3617 45.154C67.1904 45.3837 66.9442 45.5493 66.6639 45.6235C66.1022 45.7887 65.4997 45.7615 64.9559 45.5463C64.3152 45.2886 63.7618 44.8589 63.3593 44.3068C62.8429 43.5871 62.5855 42.7197 62.6275 41.841C62.6275 40.9459 62.9696 39.8899 63.6865 38.6171C64.4785 37.255 65.5067 36.0385 66.725 35.0221C68.2133 33.7853 69.8959 32.7923 71.7077 32.0815C73.8778 31.2338 76.1981 30.8165 78.5341 30.8539L78.5355 30.8526ZM120.254 43.3811L120.222 43.3851C120.037 43.41 119.864 43.4877 119.724 43.6085C119.247 43.9694 118.821 44.3907 118.457 44.8614C117.914 45.5447 117.422 46.2647 116.982 47.016C116.444 47.9263 115.965 48.8694 115.549 49.8395C115.129 50.8131 114.765 51.8079 114.459 52.8201C114.195 53.6646 113.982 54.5235 113.82 55.3923C113.695 55.9908 113.662 56.6026 113.719 57.2104C113.786 57.7211 113.947 57.8288 113.994 57.8488C114.016 57.8541 114.04 57.8541 114.062 57.8488C114.247 57.8248 114.421 57.748 114.562 57.628C115.041 57.2649 115.466 56.838 115.824 56.3592C116.361 55.6676 116.845 54.9414 117.277 54.1833C117.771 53.3241 118.263 52.3692 118.741 51.3464C119.162 50.3769 119.528 49.3847 119.84 48.3766C120.101 47.5387 120.314 46.6861 120.478 45.823L120.465 45.8177C120.59 45.2271 120.624 44.6233 120.567 44.0222C120.496 43.5154 120.336 43.405 120.287 43.3838C120.266 43.3798 120.243 43.3798 120.222 43.3838L120.254 43.3811V43.3811ZM139.637 43.3784L139.604 43.3811C139.42 43.4075 139.247 43.4851 139.106 43.6045C138.632 43.9636 138.21 44.3813 137.85 44.8481C137.307 45.5304 136.813 46.2512 136.374 47.0027C135.837 47.9221 135.359 48.8741 134.945 49.8528C134.521 50.8212 134.153 51.8118 133.842 52.8201C133.577 53.6646 133.364 54.5224 133.204 55.3923C133.077 55.9898 133.042 56.6027 133.101 57.2104C133.169 57.7211 133.329 57.8288 133.378 57.8488C133.4 57.8541 133.423 57.8541 133.446 57.8488C133.63 57.8247 133.804 57.7479 133.944 57.628C134.423 57.2636 134.848 56.8366 135.207 56.3592C135.743 55.6676 136.225 54.9414 136.655 54.1833C137.154 53.3241 137.645 52.3692 138.123 51.3464C138.54 50.3755 138.902 49.3807 139.209 48.3699C139.47 47.532 139.684 46.6795 139.847 45.8163C139.969 45.2245 140.005 44.6193 139.946 44.0195C139.878 43.5114 139.717 43.4011 139.669 43.3811C139.648 43.3771 139.626 43.3771 139.604 43.3811L139.637 43.3784V43.3784ZM99.1153 43.288L99.0854 43.2907C98.9103 43.3152 98.747 43.3913 98.617 43.5088C98.1608 43.8705 97.7617 44.2975 97.4331 44.7749C96.9362 45.4639 96.4963 46.19 96.1148 46.9468C95.6414 47.8721 95.2128 48.8188 94.8304 49.7837C94.4401 50.748 94.1154 51.7366 93.8583 52.7429C93.6409 53.5772 93.4879 54.4264 93.4008 55.2832C93.3329 55.8857 93.3397 56.4962 93.4239 57.0973C93.5135 57.612 93.6805 57.7251 93.728 57.745C93.7495 57.749 93.7716 57.749 93.7932 57.745C93.9678 57.7212 94.1308 57.6456 94.2602 57.5282C94.715 57.1691 95.1156 56.7502 95.4482 56.282C95.9478 55.6037 96.3877 54.8855 96.7665 54.1368C97.2145 53.2683 97.6436 52.3014 98.0509 51.2999C98.4392 50.3343 98.765 49.3448 99.023 48.3393C99.2402 47.4988 99.3991 46.6449 99.5009 45.7831C99.5921 45.1782 99.5875 44.5632 99.4873 43.9597C99.3719 43.4277 99.1981 43.3146 99.1465 43.2907C99.1264 43.2867 99.1056 43.2867 99.0854 43.2907L99.1153 43.288V43.288ZM156.047 30.028C156.615 30.0276 157.178 30.1369 157.703 30.3496C158.228 30.5623 158.706 30.8742 159.108 31.2676C159.51 31.6609 159.829 32.128 160.046 32.6421C160.264 33.1563 160.376 33.7074 160.377 34.264C160.377 34.8208 160.265 35.372 160.047 35.8863C159.829 36.4006 159.51 36.8678 159.108 37.2613C158.706 37.6548 158.229 37.9668 157.704 38.1796C157.178 38.3924 156.615 38.5017 156.047 38.5014C155.473 38.5114 154.902 38.4093 154.368 38.2009C153.835 37.9926 153.349 37.6822 152.939 37.2878C152.529 36.8935 152.203 36.4231 151.981 35.9042C151.759 35.3853 151.644 34.8281 151.644 34.2654C151.644 33.7026 151.759 33.1454 151.981 32.6264C152.203 32.1074 152.528 31.6369 152.938 31.2425C153.348 30.848 153.834 30.5375 154.367 30.3289C154.901 30.1204 155.471 30.0181 156.046 30.028H156.047Z" fill="#FF441F"/>
</svg>
