<svg width="224" height="101" viewBox="0 0 224 101" fill="none" xmlns="http://www.w3.org/2000/svg">
<rect x="0.834961" y="0.84375" width="223" height="100" fill="#FFF0F1"/>
<path d="M138.327 37.2881H133.675C133.614 37.2878 133.554 37.2994 133.498 37.3223C133.441 37.3452 133.39 37.3788 133.347 37.4212C133.304 37.4637 133.27 37.5141 133.247 37.5696C133.223 37.6251 133.212 37.6846 133.212 37.7446V47.7496H128.492V37.7446C128.493 37.6846 128.481 37.6251 128.458 37.5696C128.434 37.5141 128.4 37.4637 128.357 37.4212C128.314 37.3788 128.263 37.3452 128.206 37.3223C128.15 37.2994 128.09 37.2878 128.029 37.2881H123.394C123.333 37.2879 123.273 37.2996 123.216 37.3225C123.16 37.3454 123.109 37.379 123.066 37.4214C123.023 37.4639 122.989 37.5143 122.966 37.5697C122.943 37.6252 122.931 37.6846 122.931 37.7446V63.5171C122.931 63.7711 123.137 63.9737 123.394 63.9737H128.046C128.107 63.9738 128.167 63.9621 128.223 63.9392C128.28 63.9164 128.331 63.8827 128.374 63.8403C128.417 63.7979 128.451 63.7475 128.474 63.692C128.497 63.6365 128.509 63.5771 128.509 63.5171V53.1572H133.229V63.5171C133.229 63.7711 133.435 63.9737 133.693 63.9737H138.344C138.405 63.9739 138.465 63.9623 138.522 63.9394C138.578 63.9166 138.629 63.883 138.672 63.8405C138.715 63.7981 138.75 63.7476 138.773 63.6921C138.796 63.6366 138.808 63.5772 138.808 63.5171V37.7446C138.808 37.6846 138.796 37.6251 138.773 37.5696C138.75 37.5141 138.715 37.4637 138.672 37.4212C138.629 37.3788 138.578 37.3452 138.522 37.3223C138.465 37.2994 138.405 37.2878 138.344 37.2881H138.327ZM98.8326 37.2881H94.0782C93.838 37.2881 93.6323 37.4574 93.6145 37.6938V56.0808C93.6489 56.8415 93.426 57.5859 92.9623 58.1766L92.9795 58.1597C92.6051 58.5657 92.0829 58.8095 91.5268 58.838C90.9706 58.8666 90.4255 58.6775 90.0103 58.3121C89.9504 58.2702 89.8981 58.2187 89.8555 58.1597C89.4164 57.5687 89.1981 56.8465 89.2377 56.1153V37.6938C89.2374 37.6377 89.2255 37.5823 89.2025 37.531C89.1796 37.4797 89.1461 37.4336 89.1043 37.3956C89.0625 37.3575 89.0132 37.3283 88.9595 37.3098C88.9057 37.2913 88.8487 37.2839 88.7919 37.2881H84.0196C83.9631 37.2831 83.9062 37.2892 83.8522 37.3062C83.7982 37.3231 83.7481 37.3505 83.7049 37.3867C83.6618 37.4229 83.6263 37.4672 83.6008 37.517C83.5752 37.5668 83.5599 37.6212 83.5559 37.6769V56.1322V56.0814C83.4018 58.2951 84.1228 60.475 85.5641 62.1651L85.5469 62.1481C86.3083 62.9018 87.2198 63.4921 88.2242 63.8819C89.2285 64.2717 90.304 64.4526 91.3828 64.4133H91.4516C92.5304 64.4526 93.6059 64.2717 94.6102 63.8819C95.6146 63.4921 96.5261 62.9018 97.2875 62.1481L97.2703 62.1651C98.7144 60.4697 99.4343 58.2888 99.2784 56.0814V37.6938C99.2692 37.5834 99.2182 37.4804 99.1355 37.4053C99.0528 37.3301 98.9445 37.2883 98.832 37.2881H98.8326ZM52.8504 36.8491H52.816C51.7373 36.8096 50.6619 36.9903 49.6575 37.3799C48.6532 37.7695 47.7416 38.3596 46.9801 39.113L47.0317 39.0459C45.556 40.7225 44.799 42.8978 44.9204 45.1132V56.1485V56.0984C44.7662 58.3121 45.4872 60.4919 46.9285 62.182L46.9113 62.1651C47.6727 62.9187 48.5842 63.509 49.5886 63.8988C50.593 64.2887 51.6684 64.4696 52.7472 64.4302H52.8332C53.912 64.4696 54.9875 64.2887 55.9918 63.8988C56.9962 63.509 57.9077 62.9187 58.6691 62.1651C60.1132 60.4697 60.8331 58.2888 60.6773 56.0814V50.0812C60.6711 49.9592 60.618 49.844 60.5286 49.7592C60.4393 49.6744 60.3205 49.6263 60.1964 49.6247H53.3306C53.2048 49.6258 53.0839 49.6733 52.9919 49.7578C52.8998 49.8423 52.8432 49.9577 52.8332 50.0812V54.5764C52.8504 54.8466 53.0561 55.0498 53.3306 55.0498H55.219V56.0808C55.2578 56.854 55.0278 57.6172 54.5668 58.2444L54.584 58.2268C54.172 58.7341 53.537 59.0213 52.8848 58.9706H52.8504C52.1982 59.0207 51.5632 58.768 51.1512 58.2607C50.6708 57.6483 50.4275 56.8876 50.4646 56.1147V45.1803V45.1972C50.4314 44.404 50.6871 43.6251 51.1855 43.0011C51.5976 42.4937 52.2326 42.2065 52.8848 42.2573H52.9192C53.5714 42.2071 54.2057 42.4605 54.6184 42.9672L54.6528 43.0011C55.0862 43.6439 55.2857 44.4122 55.219 45.1809V46.195C55.2362 46.432 55.4419 46.6007 55.6821 46.6007H60.334C60.5741 46.6007 60.7798 46.4314 60.797 46.195V45.1308V45.164C60.9174 42.9503 60.162 40.7867 58.6691 39.1142H58.6863C57.9225 38.3636 57.0105 37.7752 56.0066 37.3855C55.0027 36.9958 53.9283 36.813 52.8498 36.8485L52.8504 36.8491ZM116.752 50.2004L116.786 50.1659C117.487 49.5033 118.044 48.7082 118.424 47.8283C118.805 46.9483 119 46.0018 119 45.0455V45.1132C119.035 43.1408 118.326 41.2258 117.009 39.7388V39.7558C116.289 38.964 115.405 38.334 114.416 37.9082C113.427 37.4824 112.356 37.271 111.277 37.2881H103.861C103.8 37.2878 103.74 37.2994 103.683 37.3223C103.627 37.3452 103.576 37.3788 103.533 37.4212C103.489 37.4637 103.455 37.5141 103.432 37.5696C103.409 37.6251 103.397 37.6846 103.397 37.7446V63.5171C103.397 63.7711 103.604 63.9737 103.861 63.9737H111.655C114.006 64.0075 116.254 63.0104 117.765 61.2357L117.748 61.2526C118.964 59.6675 119.572 57.7102 119.464 55.7265V55.7942C119.464 53.6137 118.469 51.5687 116.752 50.2004H116.752ZM108.942 42.7126H111.294H111.276C111.565 42.6931 111.854 42.736 112.124 42.8382C112.394 42.9405 112.638 43.0997 112.839 43.3046L112.872 43.3385C113.282 43.8832 113.477 44.5555 113.422 45.2311V45.1972C113.491 45.9071 113.267 46.634 112.839 47.2253V47.2084C112.649 47.4253 112.41 47.596 112.142 47.7074C111.874 47.8188 111.584 47.8678 111.294 47.8506H108.942V42.7132V42.7126ZM113.302 57.9233L113.319 57.9063C113.109 58.1524 112.841 58.3453 112.54 58.4688C112.238 58.5923 111.911 58.6429 111.585 58.6162H108.942V53.0393H111.62H111.602C111.928 53.0126 112.255 53.0632 112.557 53.1867C112.859 53.3102 113.126 53.5031 113.336 53.7492L113.319 53.7323C113.778 54.3087 114.009 55.029 113.971 55.7604V55.7773C114.005 56.5373 113.748 57.2811 113.284 57.8894L113.302 57.9233V57.9233ZM76.8628 52.4812L76.88 52.4649C77.3602 52.1432 77.7895 51.755 78.1843 51.3323L78.1671 51.3662C79.5879 49.7459 80.3357 47.6577 80.2613 45.5183V45.4681C80.2983 43.3553 79.5191 41.3075 78.0812 39.7388L78.1671 39.8398C77.4608 39.054 76.5983 38.4192 75.633 37.9745C74.6677 37.5298 73.6201 37.2847 72.5548 37.2542H64.7451C64.6842 37.2539 64.6238 37.2656 64.5674 37.2884C64.511 37.3113 64.4598 37.3449 64.4167 37.3874C64.3736 37.4298 64.3395 37.4802 64.3162 37.5357C64.293 37.5912 64.2812 37.6507 64.2815 37.7107V63.5171C64.2815 63.7711 64.4872 63.9737 64.7451 63.9737H69.3964C69.4574 63.9739 69.5178 63.9623 69.5741 63.9394C69.6305 63.9166 69.6817 63.883 69.7248 63.8405C69.7679 63.7981 69.8021 63.7476 69.8253 63.6921C69.8485 63.6366 69.8603 63.5772 69.8601 63.5171V53.9693H71.5765L74.5113 63.704C74.5623 63.8896 74.7514 64.0251 74.9572 64.0251H79.9008C79.974 64.0245 80.0461 64.0074 80.1116 63.9751C80.177 63.9428 80.2341 63.8962 80.2785 63.8388C80.3122 63.7765 80.3298 63.7069 80.3298 63.6363C80.3298 63.5656 80.3122 63.4961 80.2785 63.4337L76.8628 52.4818V52.4812ZM73.9967 47.7327C73.7607 47.9813 73.4727 48.1765 73.1526 48.3048C72.8325 48.4331 72.488 48.4914 72.1427 48.4758H69.8601V42.7126H72.1255C72.4707 42.6972 72.8153 42.7558 73.1352 42.8843C73.4552 43.0129 73.7431 43.2082 73.9789 43.457V43.4401C74.4623 44.0123 74.7131 44.7407 74.6827 45.4844V45.5183C74.7343 46.3298 74.4941 47.1074 73.9789 47.732H73.9961L73.9967 47.7327ZM176.122 50.1997L176.156 50.1659C176.856 49.5033 177.414 48.7082 177.794 47.8283C178.175 46.9484 178.371 46.0018 178.37 45.0455V45.1464C178.442 43.1277 177.73 41.1579 176.38 39.6372L176.414 39.6874C175.694 38.8957 174.809 38.2657 173.82 37.8401C172.831 37.4144 171.76 37.2031 170.681 37.2203H163.232C163.171 37.2201 163.111 37.2317 163.054 37.2546C162.998 37.2774 162.947 37.311 162.904 37.3535C162.86 37.3959 162.826 37.4464 162.803 37.5019C162.78 37.5574 162.768 37.6168 162.768 37.6769V63.5171C162.768 63.7711 162.974 63.9737 163.232 63.9737H170.989C173.342 64.0075 175.59 63.0104 177.101 61.2357L177.083 61.2526C178.299 59.6675 178.907 57.7102 178.8 55.7265V55.7604C178.8 53.5968 177.804 51.5349 176.088 50.1828L176.122 50.1997V50.1997ZM168.313 42.7132H170.664H170.647C170.935 42.6937 171.224 42.7365 171.494 42.8387C171.764 42.9409 172.008 43.0999 172.208 43.3046L172.243 43.3385C172.652 43.8833 172.847 44.5556 172.792 45.2311V45.1972C172.861 45.9071 172.638 46.634 172.208 47.2253V47.2084C172.019 47.4252 171.78 47.5959 171.512 47.7073C171.245 47.8187 170.954 47.8677 170.664 47.8506H168.313V42.7132ZM172.672 57.9233L172.689 57.9063C172.479 58.1524 172.212 58.3453 171.91 58.4688C171.609 58.5923 171.281 58.6429 170.956 58.6162H168.313V53.0393H170.99H170.973C171.298 53.0126 171.626 53.0632 171.927 53.1867C172.229 53.3102 172.496 53.5031 172.707 53.7492L172.689 53.7323C173.148 54.3087 173.38 55.029 173.342 55.7604V55.7773C173.376 56.5373 173.119 57.2811 172.655 57.8894L172.672 57.9233ZM158.203 37.2881H153.414C153.357 37.2832 153.3 37.2894 153.246 37.3064C153.192 37.3233 153.142 37.3507 153.099 37.3869C153.056 37.4231 153.021 37.4674 152.995 37.5172C152.97 37.5669 152.955 37.6212 152.951 37.6769V56.0814C152.985 56.8246 152.779 57.5514 152.333 58.1428C151.958 58.5487 151.436 58.7926 150.88 58.8211C150.324 58.8496 149.779 58.6606 149.364 58.2951C149.304 58.2532 149.251 58.2017 149.209 58.1428C148.77 57.5518 148.551 56.8296 148.591 56.0984V37.6938C148.574 37.4574 148.368 37.2881 148.127 37.2881H143.356C143.116 37.2881 142.91 37.4574 142.893 37.6938V56.1322C142.738 58.2952 143.459 60.475 144.901 62.1651L144.952 62.2159C148.299 65.1733 153.397 65.1395 156.692 62.1149L156.624 62.1651C158.068 60.4697 158.788 58.2888 158.632 56.0814V37.6938C158.615 37.4743 158.426 37.2881 158.203 37.2881V37.2881Z" fill="#F2333D"/>
</svg>
