<svg width="330" height="330" viewBox="0 0 330 330" fill="none" xmlns="http://www.w3.org/2000/svg">
<mask id="mask0_1228_27177" style="mask-type:alpha" maskUnits="userSpaceOnUse" x="0" y="0" width="330" height="330">
<rect width="330" height="330" fill="#FFF6F1"/>
</mask>
<g mask="url(#mask0_1228_27177)">
<rect width="330" height="330" fill="#FFF6F1"/>
<path d="M217.774 224.343C217.503 227.581 216.021 230.599 213.624 232.799C211.226 235 208.086 236.222 204.828 236.223H126.789C123.531 236.221 120.392 234.999 117.996 232.799C115.599 230.598 114.119 227.581 113.849 224.343L94.3589 100.776C94.2236 99.056 94.7785 97.353 95.9016 96.0407C97.0246 94.7284 98.6242 93.914 100.349 93.7764H100.858H229.162C230.881 93.7781 232.529 94.4588 233.746 95.6695C234.963 96.8803 235.649 98.5224 235.654 100.236C235.664 100.414 235.664 100.592 235.654 100.769L217.774 224.343Z" stroke="#FF7629" stroke-width="8" stroke-linecap="round" stroke-linejoin="round"/>
<path d="M203.397 193.46L185.317 183.395C182.394 181.768 178.702 182.811 177.07 185.725L168.08 201.777C166.448 204.691 167.494 208.372 170.417 209.999L188.497 220.063C191.42 221.69 195.112 220.647 196.744 217.734L205.734 201.682C207.366 198.768 206.319 195.087 203.397 193.46Z" stroke="#FF7629" stroke-width="8" stroke-linecap="round" stroke-linejoin="round"/>
<path d="M156.636 180.685L149.421 163.376C148.256 160.579 145.036 159.254 142.231 160.416L126.773 166.821C123.967 167.983 122.638 171.192 123.804 173.989L131.018 191.298C132.184 194.095 135.403 195.42 138.209 194.258L153.667 187.854C156.472 186.692 157.802 183.482 156.636 180.685Z" stroke="#FF7629" stroke-width="8" stroke-linecap="round" stroke-linejoin="round"/>
<path d="M101.399 145.411H229.181" stroke="#FF7629" stroke-width="8" stroke-linecap="round" stroke-linejoin="round"/>
</g>
</svg>
