<svg width="223" height="100" viewBox="0 0 223 100" fill="none" xmlns="http://www.w3.org/2000/svg">
<rect width="223" height="100" fill="#FFE6E3"/>
<path d="M77.6436 46.3984V54.7667H79.7332C80.2664 54.7588 80.7927 54.6441 81.2808 54.4296C81.7689 54.215 82.209 53.9049 82.575 53.5175C83.3262 52.7234 83.7372 51.6679 83.7205 50.5756C83.7364 50.0331 83.6448 49.4928 83.451 48.9858C83.2572 48.4787 82.9649 48.0149 82.591 47.621C82.2235 47.2331 81.7803 46.9244 81.2888 46.714C80.7974 46.5035 80.2679 46.3958 79.7332 46.3974H77.6447L77.6436 46.3984ZM79.7332 43.7747C83.6278 43.7747 86.574 46.7879 86.574 50.5756C86.574 54.3634 83.6278 57.3936 79.7332 57.3936H75.1246C75.0807 57.3931 75.0373 57.3839 74.9969 57.3666C74.9565 57.3493 74.92 57.3242 74.8893 57.2928C74.8586 57.2614 74.8344 57.2242 74.8181 57.1835C74.8018 57.1427 74.7937 57.0992 74.7943 57.0553V44.1268C74.7943 43.9396 74.9424 43.7874 75.1246 43.7874L79.7332 43.7747ZM96.6127 55.0582C98.3815 55.0635 99.9788 53.9772 100.66 52.3057C100.993 51.489 101.082 50.5932 100.916 49.727C100.75 48.8607 100.336 48.0612 99.7241 47.4252C99.1228 46.7997 98.3456 46.371 97.4952 46.1959C96.6448 46.0207 95.7612 46.1073 94.9611 46.4442C93.3265 47.1337 92.2588 48.7647 92.2556 50.5756C92.2556 53.0441 94.2034 55.0465 96.6137 55.0582H96.6127ZM96.6137 43.4661C100.713 43.4661 103.847 46.6921 103.847 50.5756C103.847 54.4592 100.713 57.6852 96.6127 57.6852C92.5135 57.6852 89.4063 54.4751 89.4063 50.5756C89.4063 46.6761 92.5401 43.4661 96.6127 43.4661H96.6137ZM113.804 55.0582C116.216 55.0518 118.167 53.0473 118.165 50.5788C118.161 48.1083 116.206 46.108 113.796 46.1069C111.383 46.1069 109.427 48.1061 109.424 50.5756C109.424 51.7652 109.885 52.9058 110.707 53.7463C111.109 54.1605 111.59 54.4901 112.122 54.7154C112.654 54.9407 113.226 55.0573 113.803 55.0582H113.804ZM113.803 43.4661C117.89 43.4661 121.024 46.6761 121.024 50.5756C121.024 54.4751 117.877 57.6852 113.803 57.6852C109.731 57.6852 106.57 54.4751 106.57 50.5756C106.57 46.6761 109.704 43.4661 113.803 43.4661ZM130.582 46.3984H127.635V50H130.582C130.814 50.0103 131.047 49.9729 131.265 49.89C131.482 49.8071 131.681 49.6805 131.847 49.518C132.188 49.1882 132.382 48.7307 132.387 48.2498C132.395 48.0058 132.354 47.7626 132.266 47.5348C132.179 47.307 132.045 47.0992 131.875 46.9241C131.708 46.7517 131.507 46.6161 131.284 46.5261C131.061 46.4362 130.822 46.3938 130.582 46.4016V46.3984ZM124.785 44.1268C124.785 43.9396 124.934 43.7874 125.116 43.7874H130.664C133.308 43.7874 135.222 45.7718 135.222 48.2636C135.242 49.949 134.321 51.497 132.849 52.2514L135.408 56.8829C135.443 56.9362 135.463 56.9981 135.465 57.062C135.467 57.1258 135.452 57.1891 135.42 57.2447C135.39 57.2994 135.344 57.3441 135.288 57.3736C135.233 57.403 135.17 57.4159 135.107 57.4107H132.862C132.8 57.4115 132.738 57.3948 132.685 57.3624C132.632 57.3301 132.589 57.2833 132.561 57.2276L130.096 52.644H127.625V57.0446C127.625 57.0886 127.617 57.1323 127.601 57.1732C127.585 57.214 127.561 57.2513 127.53 57.2828C127.499 57.3144 127.463 57.3395 127.422 57.3569C127.382 57.3743 127.338 57.3835 127.294 57.3841H125.131C125.087 57.3835 125.044 57.3743 125.003 57.3569C124.963 57.3395 124.926 57.3144 124.896 57.2828C124.865 57.2513 124.841 57.214 124.824 57.1732C124.808 57.1323 124.8 57.0886 124.801 57.0446L124.786 44.1279L124.785 44.1268ZM142.651 46.4623V54.8316H144.74C145.273 54.8243 145.799 54.7105 146.287 54.4966C146.776 54.2828 147.216 53.9734 147.583 53.5867C148.334 52.7935 148.746 51.7387 148.73 50.6469C148.747 50.1038 148.657 49.5626 148.463 49.0546C148.27 48.5466 147.978 48.0818 147.604 47.6869C147.236 47.2984 146.792 46.9893 146.299 46.7789C145.807 46.5684 145.276 46.461 144.741 46.4633L142.651 46.4623ZM144.74 43.8353C148.634 43.8353 151.581 46.8517 151.581 50.6469C151.581 54.4421 148.634 57.4585 144.74 57.4585H140.145C140.101 57.458 140.057 57.4488 140.017 57.4314C139.977 57.414 139.94 57.3888 139.909 57.3573C139.879 57.3258 139.854 57.2885 139.838 57.2476C139.822 57.2068 139.814 57.1631 139.815 57.1191V44.1917C139.815 44.0034 139.963 43.8513 140.145 43.8513L144.741 43.8353H144.74ZM160.271 47.1634L158.655 51.6386H161.885L160.271 47.1634ZM157.706 54.1676L156.648 57.1468C156.627 57.2169 156.583 57.2779 156.523 57.3203C156.464 57.3627 156.391 57.384 156.318 57.3809H154.023C153.964 57.3863 153.906 57.3759 153.852 57.3509C153.799 57.3258 153.754 57.2869 153.721 57.2383C153.688 57.1891 153.667 57.1322 153.662 57.0729C153.657 57.0136 153.668 56.954 153.693 56.8999L158.652 43.9843C158.675 43.9162 158.72 43.8575 158.779 43.8171C158.839 43.7768 158.91 43.757 158.982 43.7608H161.55C161.622 43.7568 161.693 43.7764 161.753 43.8168C161.813 43.8572 161.858 43.916 161.881 43.9843L166.84 56.8999C166.865 56.9541 166.875 57.0138 166.87 57.073C166.865 57.1323 166.844 57.1892 166.811 57.2383C166.778 57.2867 166.732 57.3254 166.679 57.3503C166.626 57.3751 166.567 57.3854 166.509 57.3798H164.215C164.142 57.3829 164.069 57.3616 164.01 57.3192C163.95 57.2769 163.906 57.2158 163.885 57.1457L162.826 54.1666H157.706V54.1676ZM169.501 47.4539C169.501 45.3153 171.306 43.4661 174.157 43.4661C175.691 43.4319 177.178 44.0052 178.291 45.061C178.325 45.093 178.352 45.1316 178.37 45.1744C178.389 45.2173 178.398 45.2634 178.398 45.31C178.398 45.3566 178.389 45.4027 178.37 45.4455C178.352 45.4883 178.325 45.5269 178.291 45.559L177.02 46.8517C176.989 46.8831 176.953 46.9081 176.913 46.9251C176.872 46.9422 176.829 46.951 176.785 46.951C176.742 46.951 176.698 46.9422 176.658 46.9251C176.618 46.9081 176.581 46.8831 176.551 46.8517C175.952 46.2913 175.166 45.9738 174.345 45.9612C173.205 45.9612 172.362 46.6389 172.362 47.4209C172.362 49.949 179.1 48.4902 179.1 53.3548C179.096 55.82 177.278 57.6852 174.062 57.6852C173.169 57.6943 172.283 57.524 171.457 57.1844C170.631 56.8448 169.883 56.3428 169.255 55.7083C169.221 55.6763 169.194 55.6377 169.176 55.5949C169.157 55.552 169.148 55.5059 169.148 55.4593C169.148 55.4127 169.157 55.3666 169.176 55.3238C169.194 55.281 169.221 55.2424 169.255 55.2103L170.485 53.9506C170.515 53.9177 170.552 53.8914 170.594 53.8734C170.635 53.8554 170.679 53.8462 170.724 53.8462C170.769 53.8462 170.814 53.8554 170.855 53.8734C170.896 53.8914 170.934 53.9177 170.964 53.9506C171.738 54.7166 172.78 55.1516 173.87 55.1635C175.295 55.1635 176.233 54.3847 176.233 53.409C176.233 50.8799 169.499 52.3397 169.499 47.4741L169.501 47.4539ZM191.317 44.1098V49.2212H185.615V44.1098C185.615 44.0659 185.607 44.0224 185.591 43.9816C185.574 43.9409 185.55 43.9037 185.52 43.8723C185.489 43.8409 185.452 43.8158 185.412 43.7985C185.372 43.7812 185.328 43.772 185.284 43.7715H183.121C183.077 43.772 183.034 43.7812 182.993 43.7985C182.953 43.8158 182.916 43.8409 182.886 43.8723C182.855 43.9037 182.831 43.9409 182.815 43.9816C182.798 44.0224 182.79 44.0659 182.791 44.1098V57.0234C182.791 57.2106 182.94 57.3628 183.121 57.3628H185.284C185.465 57.3628 185.615 57.2106 185.615 57.0234V51.8311H191.313V57.0234C191.313 57.2106 191.462 57.3628 191.643 57.3628H193.807C193.989 57.3628 194.137 57.2106 194.137 57.0234V44.1098C194.137 44.0659 194.129 44.0224 194.113 43.9816C194.097 43.9409 194.073 43.9037 194.042 43.8723C194.011 43.8409 193.975 43.8158 193.934 43.7985C193.894 43.7812 193.85 43.772 193.807 43.7715H191.643C191.555 43.7737 191.472 43.8105 191.411 43.8738C191.35 43.9371 191.316 44.0219 191.317 44.1098V44.1098ZM62.6523 45.4951C61.152 42.7181 58.2163 40.9892 55.0239 40.9998H30.8699C30.7067 41.0005 30.5474 41.049 30.4118 41.1395C30.2761 41.2299 30.1701 41.3582 30.1069 41.5084C30.0447 41.6576 30.0285 41.822 30.0604 41.9804C30.0923 42.1389 30.1708 42.2843 30.2859 42.3979L35.5477 47.6114C36.0122 48.0732 36.6452 48.3317 37.3037 48.3317H54.3313C55.545 48.3189 56.537 49.2786 56.5498 50.4735C56.5626 51.6683 55.5897 52.6472 54.3761 52.6589H42.6368C42.4736 52.659 42.314 52.707 42.1779 52.7971C42.0419 52.8872 41.9354 53.0153 41.8717 53.1654C41.8089 53.3148 41.7923 53.4795 41.824 53.6384C41.8557 53.7973 41.9343 53.9431 42.0497 54.057L47.3146 59.2748C47.7821 59.7363 48.4132 59.9948 49.0707 59.994H54.3803C61.2883 59.994 66.5117 52.7164 62.6523 45.4919" fill="#EB1700"/>
</svg>
