<svg width="330" height="330" viewBox="0 0 330 330" fill="none" xmlns="http://www.w3.org/2000/svg">
<mask id="mask0_1228_27185" style="mask-type:alpha" maskUnits="userSpaceOnUse" x="0" y="0" width="330" height="330">
<rect width="330" height="330" fill="#FFF6F1"/>
</mask>
<g mask="url(#mask0_1228_27185)">
<rect width="330" height="330" fill="#FFF6F1"/>
<path d="M125.414 130.797C125.936 130.797 126.447 130.951 126.881 131.24C127.315 131.53 127.653 131.941 127.853 132.422C128.052 132.904 128.104 133.433 128.002 133.943C127.899 134.454 127.647 134.923 127.278 135.291C126.908 135.658 126.437 135.908 125.924 136.009C125.412 136.11 124.881 136.057 124.399 135.856C123.917 135.656 123.505 135.318 123.216 134.884C122.927 134.451 122.774 133.941 122.775 133.421C122.774 133.075 122.842 132.732 122.974 132.413C123.106 132.093 123.301 131.803 123.546 131.558C123.791 131.314 124.082 131.12 124.403 130.988C124.724 130.856 125.067 130.789 125.414 130.79" stroke="#FF7629" stroke-width="8" stroke-linecap="round" stroke-linejoin="round"/>
<path d="M153.739 138.69C154.261 138.69 154.771 138.844 155.205 139.133C155.639 139.422 155.977 139.833 156.177 140.314C156.377 140.795 156.429 141.324 156.327 141.834C156.225 142.345 155.974 142.813 155.605 143.181C155.236 143.549 154.765 143.8 154.254 143.901C153.742 144.003 153.211 143.951 152.729 143.752C152.247 143.553 151.834 143.215 151.544 142.783C151.254 142.35 151.1 141.841 151.1 141.321C151.099 140.975 151.166 140.633 151.299 140.313C151.431 139.993 151.625 139.703 151.871 139.458C152.116 139.214 152.407 139.02 152.728 138.888C153.048 138.756 153.392 138.689 153.739 138.69Z" fill="#FF7629" stroke="#FF7629" stroke-width="8" stroke-linecap="round" stroke-linejoin="round"/>
<path d="M204.586 138.69C205.108 138.69 205.619 138.844 206.052 139.133C206.486 139.422 206.825 139.833 207.024 140.314C207.224 140.795 207.276 141.324 207.175 141.834C207.073 142.345 206.821 142.813 206.452 143.181C206.083 143.549 205.613 143.8 205.101 143.901C204.589 144.003 204.059 143.951 203.576 143.752C203.094 143.553 202.682 143.215 202.392 142.783C202.102 142.35 201.947 141.841 201.947 141.321C201.946 140.975 202.014 140.633 202.146 140.313C202.279 139.993 202.473 139.703 202.718 139.458C202.963 139.214 203.255 139.02 203.575 138.888C203.896 138.756 204.239 138.689 204.586 138.69Z" fill="#FF7629" stroke="#FF7629" stroke-width="8" stroke-linecap="round" stroke-linejoin="round"/>
<path d="M180.145 128.166C180.667 128.166 181.178 128.32 181.612 128.609C182.046 128.898 182.384 129.309 182.584 129.79C182.783 130.27 182.836 130.799 182.734 131.31C182.632 131.82 182.381 132.289 182.011 132.657C181.642 133.025 181.172 133.276 180.66 133.377C180.148 133.479 179.618 133.426 179.135 133.227C178.653 133.028 178.241 132.691 177.951 132.258C177.661 131.826 177.506 131.317 177.506 130.797C177.505 130.451 177.573 130.108 177.705 129.789C177.838 129.469 178.032 129.179 178.277 128.934C178.522 128.69 178.814 128.496 179.134 128.364C179.455 128.232 179.799 128.165 180.145 128.166Z" fill="#FF7629" stroke="#FF7629" stroke-width="8" stroke-linecap="round" stroke-linejoin="round"/>
<path d="M85.8286 159.738H244.171V191.311H85.8286V159.738Z" stroke="#FF7629" stroke-width="8" stroke-linecap="round" stroke-linejoin="round"/>
<path d="M233.614 159.241V150.54C233.614 144.837 232.488 139.19 230.298 133.921C228.109 128.652 224.9 123.865 220.855 119.833C216.81 115.801 212.008 112.602 206.723 110.421C201.437 108.239 195.773 107.116 190.053 107.117H139.946C134.226 107.116 128.561 108.239 123.276 110.421C117.991 112.602 113.189 115.801 109.144 119.833C105.098 123.865 101.89 128.652 99.7004 133.921C97.5111 139.19 96.3843 144.837 96.3843 150.54L96.3843 158.36" stroke="#FF7629" stroke-width="8" stroke-linecap="round" stroke-linejoin="round"/>
<path d="M233.614 192.457V201.835C233.614 207.417 231.39 212.771 227.431 216.718C223.471 220.666 218.101 222.883 212.502 222.883H117.497C111.897 222.883 106.527 220.666 102.568 216.718C98.6086 212.771 96.3843 207.417 96.3843 201.835L96.3843 193.73" stroke="#FF7629" stroke-width="8" stroke-linecap="round" stroke-linejoin="round"/>
</g>
</svg>
