<svg width="223" height="101" viewBox="0 0 223 101" fill="none" xmlns="http://www.w3.org/2000/svg">
<rect y="0.3125" width="223" height="100" fill="#F6F6F6"/>
<path d="M34.0503 62.9531V38.3125H44.312C48.7351 38.3125 51.6022 41.5647 51.6022 45.8007C51.6022 50.1008 48.7271 53.2848 44.312 53.2848H37.9748V62.9531H34.0503ZM37.9708 41.649V50.0085H44.1431C46.1054 50.0085 47.6816 48.0009 47.6816 45.8127C47.6816 43.6245 46.1054 41.649 44.1431 41.649H37.9708ZM71.4058 57.7335C72.6684 57.4886 73.8948 57.2437 75.1212 57.0309C75.3665 58.4321 76.2069 60.1104 79.0418 60.1104C79.6731 60.1104 82.7934 59.8655 82.7934 57.6291C82.7934 53.3932 71.9366 57.7656 71.9366 50.1771C71.9366 47.1658 74.9483 44.8932 78.7321 44.8932C82.5159 44.8932 85.7408 46.4672 86.2636 50.422C85.005 50.6308 83.7786 50.8757 82.5521 51.1207C82.3068 48.9164 80.9437 48.1133 78.8367 48.1133C76.979 48.1133 75.7204 49.093 75.7204 50.1771C75.7204 51.6105 77.0514 51.9959 79.1544 52.2047C83.1473 52.6263 86.545 53.4976 86.545 57.6291C86.545 61.3351 83.288 63.2944 79.0458 63.2944C74.494 63.2944 71.9004 60.9175 71.4058 57.7335V57.7335ZM87.5302 48.0973V45.2265H90.5781V40.1313H94.366V45.2385H98.0452V48.0973H94.366V58.135C94.366 59.5363 94.7882 59.9539 96.0146 59.9539C96.5373 59.9539 97.6954 59.8856 97.6954 59.8856V62.9531C97.6954 62.9531 96.3403 63.0937 94.9973 63.0937C91.6678 63.0937 90.5741 61.3069 90.5741 57.9142V48.0973H87.5302ZM111.218 53.076C111.218 50.3819 110.623 48.1093 107.784 48.1093C105.086 48.1093 104.35 50.3819 104.35 53.076V62.9531H100.566V45.2385H104.016L104.366 47.1618C104.893 46.1821 106.996 44.8892 109.063 44.8892C112.002 44.8892 113.406 46.4953 114.001 47.5472C114.946 45.9733 117.258 44.8892 119.325 44.8892C124.15 44.8892 125.634 47.8283 125.634 53.076V62.9531H121.87V53.076C121.87 50.418 121.134 48.0732 118.436 48.0732C115.597 48.0732 115.002 50.3457 115.002 53.076V62.9531H111.218V53.076ZM132.485 51.3094C131.279 51.1006 130 50.8195 128.738 50.6107C129.14 46.692 132.357 44.8732 136.06 44.8732C141.07 44.8732 143.664 47.3224 143.664 52.1485V58.3077C143.664 59.3556 143.873 59.9498 144.609 59.9498C144.917 59.9467 145.223 59.8994 145.518 59.8093V62.8889C144.788 63.0865 144.034 63.1811 143.278 63.1699C142.54 63.2174 141.812 62.984 141.24 62.517C140.668 62.0499 140.294 61.3837 140.194 60.6525C139.513 61.4605 138.667 62.1129 137.711 62.5652C136.756 63.0176 135.714 63.2595 134.657 63.2743C130.559 63.2743 128.107 61.0018 128.107 57.6532C128.107 54.8908 130.664 52.3734 135.344 52.3734H139.9V51.3094C139.9 49.9442 139.337 48.0973 136.08 48.0973C133.909 48.0973 132.578 49.1814 132.506 51.3094H132.485ZM139.9 56.0673V55.192H135.71C132.59 55.192 131.963 56.7659 131.963 57.6412C131.963 58.8457 132.767 60.0904 135.079 60.0904C138.163 60.0904 139.88 57.9905 139.88 56.0753L139.9 56.0673ZM60.8224 63.3225C58.9986 63.3225 57.2158 62.7825 55.6995 61.7707C54.1831 60.7588 53.0014 59.3207 52.3036 57.6382C51.6059 55.9557 51.4235 54.1043 51.7796 52.3183C52.1357 50.5323 53.0142 48.8918 54.3041 47.6044C55.594 46.317 57.2373 45.4405 59.0261 45.0857C60.8149 44.7309 62.6689 44.9138 64.3536 45.6113C66.0384 46.3087 67.4781 47.4894 68.4907 49.0039C69.5034 50.5185 70.0435 52.2989 70.0427 54.1199C70.0405 56.5607 69.0683 58.9007 67.3395 60.6262C65.6107 62.3517 63.2667 63.3215 60.8224 63.3225V63.3225ZM60.8224 48.4185C59.6931 48.4185 58.5891 48.7529 57.6502 49.3794C56.7112 50.0058 55.9793 50.8963 55.5472 51.9381C55.115 52.9799 55.0019 54.1263 55.2222 55.2322C55.4426 56.3382 55.9864 57.3541 56.7849 58.1514C57.5835 58.9488 58.6009 59.4918 59.7085 59.7118C60.8161 59.9318 61.9641 59.8189 63.0075 59.3874C64.0508 58.9558 64.9426 58.2251 65.57 57.2875C66.1974 56.3499 66.5323 55.2476 66.5323 54.1199C66.5312 52.6081 65.9293 51.1586 64.8587 50.0896C63.7881 49.0206 62.3364 48.4196 60.8224 48.4185ZM169.065 56.7859C170.219 57.0991 171.377 57.4484 172.531 57.8018C171.727 60.3554 169.314 63.2944 164.489 63.2944C159.664 63.2944 156.153 59.5483 156.153 54.0918C156.153 48.6353 159.37 44.8892 164.316 44.8892C169.262 44.8892 172.302 48.1776 172.302 53.5337C172.312 54.094 172.289 54.6544 172.234 55.212H160.062C160.13 57.8018 161.915 60.1104 164.485 60.1104C166.343 60.1104 168.164 59.2352 169.077 56.7859H169.065ZM168.273 52.3693C168.168 49.7475 166.91 48.0652 164.316 48.0652C161.791 48.0652 160.355 50.1651 160.251 52.3693H168.273ZM173.934 57.7335C175.197 57.4886 176.419 57.2437 177.646 57.0349C177.891 58.4321 178.736 60.1145 181.57 60.1145C182.202 60.1145 185.322 59.8695 185.322 57.6291C185.322 53.3972 174.465 57.7696 174.465 50.1771C174.465 47.1698 177.477 44.8932 181.261 44.8932C185.045 44.8932 188.265 46.4712 188.792 50.422C187.53 50.6308 186.303 50.8757 185.081 51.1207C184.835 48.9164 183.472 48.1133 181.365 48.1133C179.508 48.1133 178.249 49.093 178.249 50.1771C178.249 51.6105 179.58 51.9959 181.679 52.2047C185.676 52.6263 189.074 53.5016 189.074 57.6291C189.074 61.3391 185.813 63.2944 181.574 63.2944C177.023 63.2944 174.429 60.9175 173.934 57.7335V57.7335ZM144.959 48.0973V45.2265H148.007V40.1313H151.791V45.2385H155.486V48.0973H151.807V58.135C151.807 59.5363 152.229 59.9539 153.455 59.9539C153.978 59.9539 155.136 59.8856 155.136 59.8856V62.9531C155.136 62.9531 153.781 63.0937 152.438 63.0937C149.108 63.0937 148.015 61.3069 148.015 57.9142V48.0973H144.959Z" fill="black"/>
</svg>
