<svg width="330" height="240" viewBox="0 0 330 240" fill="none" xmlns="http://www.w3.org/2000/svg">
<mask id="mask0_1225_27003" style="mask-type:alpha" maskUnits="userSpaceOnUse" x="0" y="0" width="330" height="240">
<rect width="330" height="240" fill="#D0D0D0"/>
</mask>
<g mask="url(#mask0_1225_27003)">
<rect width="330" height="240" fill="#FFF6F1"/>
</g>
<path d="M216 157.116C200.008 149.848 182.557 146.358 165 146.916C147.443 146.358 129.992 149.848 114 157.116" stroke="#FF7629" stroke-width="8" stroke-linecap="round" stroke-linejoin="round"/>
<path d="M186.263 100.037L181.917 147.824" stroke="#FF7629" stroke-width="8" stroke-linecap="round" stroke-linejoin="round"/>
<path d="M147.469 147.891L175.496 96.5115" stroke="#FF7629" stroke-width="8" stroke-linecap="round" stroke-linejoin="round"/>
<path d="M175.492 96.5116L222.39 111.863C223.098 112.099 223.857 112.145 224.589 111.995C225.322 111.845 226.001 111.505 226.56 111.008C227.119 110.512 227.536 109.877 227.771 109.167C228.006 108.457 228.05 107.698 227.898 106.967C227.221 101.547 224.905 96.4627 221.259 92.3955C217.613 88.3283 212.812 85.4721 207.498 84.2093C203.027 83.2505 198.423 83.0932 193.898 83.7446" stroke="#FF7629" stroke-width="8" stroke-linecap="round" stroke-linejoin="round"/>
<path d="M175.496 96.5121L132.798 108.1C132.097 108.293 131.359 108.303 130.653 108.13C129.948 107.956 129.298 107.604 128.767 107.108C128.236 106.612 127.842 105.988 127.621 105.295C127.4 104.603 127.36 103.865 127.505 103.153C128.128 97.6529 130.429 92.4776 134.096 88.3309C137.763 84.1842 142.618 81.2673 148.002 79.9767C153.826 78.6598 159.886 78.8136 165.636 80.4244" stroke="#FF7629" stroke-width="8" stroke-linecap="round" stroke-linejoin="round"/>
<path d="M202.965 83.546L220.532 65.8886C221.021 65.4087 221.386 64.8174 221.595 64.1654C221.805 63.5134 221.854 62.8202 221.737 62.1454C221.62 61.4706 221.341 60.8342 220.924 60.2909C220.506 59.7476 219.964 59.3137 219.342 59.0263C214.74 56.7872 209.606 55.8716 204.513 56.382C199.421 56.8923 194.571 58.8084 190.504 61.9163C186.893 64.8075 184.338 68.8121 183.24 73.3063" stroke="#FF7629" stroke-width="8" stroke-linecap="round" stroke-linejoin="round"/>
<path d="M155.369 79.1094L144.308 67.1187C143.794 66.5705 143.436 65.8954 143.269 65.1628C143.102 64.4301 143.134 63.6664 143.36 62.9499C143.586 62.2333 143.999 61.5899 144.556 61.0857C145.113 60.5815 145.794 60.2346 146.529 60.0807C151.216 59.1753 155.979 58.7217 160.753 58.7264C165.402 59.153 169.877 60.703 173.794 63.2429C177.711 65.7828 180.952 69.2365 183.238 73.3067" stroke="#FF7629" stroke-width="8" stroke-linecap="round" stroke-linejoin="round"/>
<path d="M101.25 183.75C105.865 184.321 110.55 183.854 114.961 182.384C119.373 180.913 123.401 178.476 126.75 175.25C129.166 177.926 132.116 180.065 135.411 181.529C138.705 182.993 142.27 183.75 145.875 183.75C149.48 183.75 153.045 182.993 156.339 181.529C159.634 180.065 162.584 177.926 165 175.25C167.416 177.926 170.366 180.065 173.661 181.529C176.955 182.993 180.52 183.75 184.125 183.75C187.73 183.75 191.295 182.993 194.589 181.529C197.884 180.065 200.834 177.926 203.25 175.25C206.599 178.476 210.627 180.913 215.039 182.384C219.45 183.854 224.135 184.321 228.75 183.75" stroke="#FF7629" stroke-width="8" stroke-linecap="round" stroke-linejoin="round"/>
</svg>
